<?xml version="1.0" standalone="no"?>
<!DOCTYPE svg PUBLIC "-//W3C//DTD SVG 20010904//EN"
 "http://www.w3.org/TR/2001/REC-SVG-20010904/DTD/svg10.dtd">
<svg version="1.0" xmlns="http://www.w3.org/2000/svg"
 width="700.000000pt" height="467.000000pt" viewBox="0 0 700.000000 467.000000"
 preserveAspectRatio="xMidYMid meet">

<g transform="translate(0.000000,467.000000) scale(0.100000,-0.100000)"
fill="#000000" stroke="none">
<path d="M2136 4363 c-5 -28 -15 -54 -22 -57 -8 -3 -14 -12 -14 -21 0 -8 -4
-15 -10 -15 -5 0 -10 -4 -10 -10 0 -12 70 -13 89 -1 12 8 12 13 -2 34 -9 13
-17 46 -19 73 l-4 49 -8 -52z"/>
<path d="M3717 4353 c-2 -5 -7 -20 -11 -35 -9 -41 -46 -98 -63 -98 -8 0 -11
-4 -8 -10 7 -11 57 -13 93 -4 26 7 27 19 7 58 -10 19 -13 41 -9 62 6 31 1 45
-9 27z"/>
<path d="M2605 4240 c-13 -6 17 -9 85 -11 l105 -2 -145 -7 c-82 -3 -155 -11
-167 -18 -28 -16 -70 -15 -75 0 -3 9 -42 14 -129 18 -110 4 -117 5 -64 11 33
4 -21 6 -120 4 -240 -5 -378 -36 -431 -96 -34 -39 -66 -98 -59 -109 3 -5 1
-10 -6 -10 -7 0 -10 -3 -7 -6 4 -3 -10 -22 -31 -42 -37 -37 -84 -120 -79 -140
2 -6 -5 -17 -15 -24 -12 -9 -17 -23 -15 -39 l4 -24 12 28 c6 15 16 27 21 27
14 0 2 -67 -20 -117 -11 -23 -19 -49 -19 -57 0 -11 -10 -16 -32 -16 -47 -1
-148 -60 -172 -101 -22 -37 -98 -280 -92 -295 2 -6 -2 -20 -9 -31 -14 -20 -45
-128 -45 -158 0 -35 18 -3 30 56 7 33 19 63 27 66 7 3 13 14 13 26 0 11 3 18
6 14 3 -3 -1 -35 -10 -71 -9 -36 -29 -126 -45 -201 l-28 -135 34 -50 c18 -27
33 -52 33 -56 0 -3 11 -19 25 -35 24 -30 24 -30 29 -7 12 61 16 77 22 91 3 9
-2 16 -14 19 -10 3 -28 19 -40 35 l-21 30 38 11 c43 13 54 30 76 125 22 89 17
101 -40 95 -42 -5 -45 -4 -45 18 0 19 9 25 55 38 l54 16 20 63 c23 76 45 238
40 301 -4 44 -3 47 28 58 17 6 36 21 43 32 10 20 10 20 6 1 -2 -11 -18 -67
-35 -125 -34 -115 -72 -292 -65 -300 10 -9 23 26 40 100 31 144 106 415 116
425 8 7 9 4 3 -10 -24 -67 -70 -260 -84 -360 -21 -151 -24 -225 -10 -226 8 0
4 -4 -8 -9 -23 -9 -32 -30 -13 -30 6 0 10 -7 10 -15 0 -8 -7 -15 -15 -15 -8 0
-15 -5 -15 -11 0 -8 -5 -7 -16 1 -12 11 -18 10 -34 -6 -20 -19 -46 -126 -35
-143 3 -5 -1 -12 -7 -15 -10 -5 -10 -7 -1 -12 9 -4 10 -11 4 -22 -15 -29 -53
-242 -48 -268 3 -16 0 -24 -10 -24 -30 0 0 -19 60 -39 149 -48 241 -59 607
-76 195 -9 528 -24 740 -35 881 -45 871 -45 1022 -31 190 16 343 40 365 57 17
13 17 13 0 14 -14 0 -16 4 -7 19 5 11 7 27 4 35 -3 9 -2 16 4 16 5 0 13 -11
16 -25 4 -14 11 -25 16 -25 10 0 74 49 170 129 134 112 159 130 191 133 l34 3
3 113 c2 86 0 112 -10 112 -10 0 -12 -20 -10 -83 l3 -83 -55 -48 -56 -48 1 49
c2 45 2 46 8 13 5 -27 8 -31 13 -17 4 9 14 17 22 17 7 0 17 8 21 18 5 14 4 15
-6 4 -16 -15 -33 -16 -24 -1 4 5 18 15 32 20 22 8 25 14 21 49 -2 22 -1 40 2
40 7 0 2 241 -6 310 -4 30 -7 91 -7 135 l-1 80 -63 64 -62 64 2 91 2 90 -52
15 c-52 13 -67 26 -40 33 11 2 10 18 -4 83 -67 320 -65 317 -121 330 -34 9
-35 -2 -13 -84 24 -90 74 -342 80 -396 2 -27 7 -67 11 -87 7 -43 -6 -49 -44
-22 -21 15 -23 14 -36 -18 -14 -32 -14 -29 -15 62 0 85 -3 97 -22 113 -12 9
-17 17 -12 17 14 0 23 148 13 222 -12 100 -29 149 -63 183 -28 27 -47 34 -142
53 -126 24 -317 47 -525 61 -196 14 -650 21 -675 11z m-300 -96 c39 -8 105
-15 147 -15 71 1 103 -9 78 -24 -12 -7 -13 -25 -2 -25 5 0 14 11 20 25 11 23
16 25 74 23 l63 -2 -52 -3 c-57 -4 -71 -19 -25 -26 26 -4 25 -4 -5 -6 -43 -2
-53 -21 -11 -22 30 -1 31 -2 8 -8 -24 -7 -24 -7 -5 -19 31 -18 8 -14 -28 5
-22 12 -52 16 -100 14 -66 -2 -68 -1 -57 19 14 26 -1 26 -18 0 -11 -18 -23
-20 -107 -20 -52 0 -95 2 -95 5 0 4 7 19 15 35 16 30 42 43 31 15 -3 -8 -9
-22 -12 -30 -5 -11 1 -15 23 -15 21 0 36 9 51 29 l22 30 -22 7 c-13 4 -68 10
-123 14 l-100 7 80 1 c44 1 112 -5 150 -14z m-189 -46 c-20 -29 -20 -38 1 -38
9 0 14 -2 11 -5 -3 -4 -17 -3 -32 1 -23 5 -24 9 -14 28 11 22 27 36 41 36 5 0
1 -10 -7 -22z m618 14 c-6 -4 -16 -17 -23 -29 -6 -13 -18 -23 -27 -23 -13 0
-13 3 1 23 8 13 12 27 8 30 -3 4 7 7 23 7 16 0 24 -4 18 -8z m86 -2 c-22 -13
-5 -23 27 -16 21 6 24 9 12 17 -11 7 -9 9 9 9 31 0 28 -18 -5 -31 -22 -8 -24
-12 -13 -19 8 -5 11 -12 7 -16 -4 -4 -15 0 -25 9 -23 21 -29 21 -49 2 -20 -21
-28 -12 -13 14 6 12 8 26 5 31 -4 6 8 10 27 10 24 0 29 -3 18 -10z m196 -8
c-35 -43 -48 -52 -80 -52 -43 0 -52 14 -32 46 15 21 23 24 70 22 43 -2 51 -5
42 -16z m84 3 c0 -16 -25 -55 -36 -55 -10 0 -10 7 -1 30 6 17 17 30 24 30 7 0
13 -2 13 -5z m81 -38 c-6 -15 -16 -27 -22 -27 -7 0 -8 7 -4 18 4 9 10 25 12
35 4 11 9 15 15 9 5 -5 5 -20 -1 -35z m-1516 23 c3 -5 -1 -10 -10 -10 -9 0
-13 5 -10 10 3 6 8 10 10 10 2 0 7 -4 10 -10z m513 -7 c-2 -10 -12 -19 -22
-21 -12 -3 -16 0 -11 8 4 7 1 16 -6 21 -10 6 -6 9 14 9 22 0 28 -4 25 -17z
m1127 7 c-22 -4 -34 -8 -27 -9 18 -2 -8 -41 -27 -41 -12 0 -12 3 -3 12 7 7 12
20 12 30 0 15 8 18 43 17 l42 -2 -40 -7z m92 -30 c-6 -16 -17 -30 -24 -30 -16
0 -16 3 -1 35 17 38 40 34 25 -5z m93 15 c0 -1 -7 -8 -15 -15 -13 -10 -15 -9
-15 8 0 15 5 20 15 16 8 -4 15 -7 15 -9z m-153 -11 c-3 -3 -12 -4 -19 -1 -8 3
-5 6 6 6 11 1 17 -2 13 -5z m111 -24 c7 -11 8 -20 4 -20 -5 0 -17 9 -27 20
-14 15 -15 20 -4 20 8 0 20 -9 27 -20z m-463 -41 c396 -19 672 -35 752 -45
l52 -6 -14 -27 c-21 -41 -35 -47 -100 -40 l-60 6 61 1 c41 1 66 7 74 17 10 12
9 15 -6 16 -11 0 -28 2 -39 5 -129 27 -865 57 -865 36 0 -7 5 -12 11 -12 5 0
8 -4 4 -9 -3 -5 9 -12 27 -14 40 -6 -437 1 -687 10 -104 3 -172 9 -160 14 20
8 20 8 0 8 -12 1 -26 6 -32 12 -14 14 -99 18 -228 10 -88 -5 -100 -8 -97 -23
2 -13 -4 -18 -21 -18 -20 0 -23 4 -19 30 2 17 5 31 6 31 0 1 69 5 151 9 251
12 810 7 1190 -11z m-1272 -36 c-7 -2 -19 -2 -25 0 -7 3 -2 5 12 5 14 0 19 -2
13 -5z m-176 -68 c-30 -59 -47 -80 -47 -55 0 10 70 120 76 120 2 0 -11 -29
-29 -65z m1228 -245 c66 -4 94 -8 62 -8 -32 -1 -83 -12 -115 -23 -109 -41
-526 -36 -618 7 -16 8 -59 21 -95 29 -58 13 -33 14 291 8 195 -3 409 -9 475
-13z m1432 -57 c-2 -16 -4 -5 -4 22 0 28 2 40 4 28 2 -13 2 -35 0 -50z m-4
-65 c7 -5 0 -8 -15 -8 -31 0 -33 5 -15 43 l12 27 3 -28 c2 -15 9 -30 15 -34z
m-2883 -53 c-13 -14 -26 -22 -29 -19 -3 3 5 14 18 25 33 27 39 24 11 -6z
m2880 -40 c20 -10 27 -20 23 -33 -2 -11 0 -44 6 -75 5 -31 7 -102 4 -163 l-6
-107 -34 36 c-26 30 -33 45 -33 79 0 24 -5 72 -10 108 -24 157 -24 150 -6 150
9 0 16 5 16 10 0 13 6 13 40 -5z m-59 -395 c10 -371 16 -424 18 -173 1 164 8
213 26 183 3 -5 15 -10 25 -10 13 0 20 -8 22 -27 2 -23 9 -29 38 -33 31 -4 35
-9 38 -36 l3 -32 -41 8 c-50 9 -52 4 -48 -135 l3 -100 28 -3 c15 -2 27 -6 27
-10 0 -16 -89 -62 -121 -62 l-34 0 4 321 c3 314 -4 414 -31 459 -6 10 -7 5 -3
-15 26 -120 33 -335 18 -628 -5 -123 -8 -136 -25 -141 -47 -12 -51 -1 -46 123
2 64 1 130 -3 146 -3 17 -7 24 -8 16 0 -8 -4 -11 -7 -8 -4 4 -1 14 7 23 11 13
15 71 17 260 l3 243 27 3 c49 6 54 -24 63 -372z m106 308 c-3 -7 -5 -2 -5 12
0 14 2 19 5 13 2 -7 2 -19 0 -25z m-2651 -7 c-8 -12 17 -20 78 -27 28 -3 59
-10 69 -16 10 -5 25 -7 33 -4 10 4 14 -3 14 -25 0 -40 -21 -172 -29 -180 -3
-4 -50 -9 -103 -12 -83 -5 -98 -3 -98 10 0 8 -14 29 -31 46 -28 27 -31 35 -25
71 11 79 26 115 54 131 31 16 46 19 38 6z m-379 -33 c-3 -8 -6 -5 -6 6 -1 11
2 17 5 13 3 -3 4 -12 1 -19z m-13 -67 c-4 -22 -11 -41 -16 -41 -6 0 -7 8 -3
18 3 9 9 30 12 45 9 43 15 25 7 -22z m319 -151 c6 -24 0 -30 -30 -30 -26 0
-26 0 -13 34 11 29 35 26 43 -4z m15 -72 c3 -15 -4 -18 -32 -18 -34 0 -47 15
-29 34 13 13 58 1 61 -16z m217 2 c0 -12 -18 -16 -92 -18 -88 -3 -93 -2 -93
18 0 20 5 21 93 18 74 -2 92 -6 92 -18z m2616 -55 c22 -5 29 -12 29 -30 0 -18
-6 -24 -32 -27 l-33 -3 -1 70 c0 38 1 53 3 33 4 -31 9 -38 34 -43z m-44 -202
c-2 -16 -4 -3 -4 27 0 30 2 43 4 28 2 -16 2 -40 0 -55z m-2327 17 c278 -11
692 -29 920 -40 228 -11 476 -22 550 -25 261 -10 302 -15 288 -32 -15 -19
-104 -17 -1073 27 -121 5 -328 14 -460 20 -483 21 -820 42 -832 52 -27 22 -12
30 45 24 31 -4 284 -15 562 -26z m855 -139 c-99 -21 -193 -41 -208 -45 -21 -5
-28 -4 -25 6 6 16 293 76 363 76 37 0 2 -10 -130 -37z m-247 -30 c0 -37 -6
-52 -31 -78 -17 -18 -39 -33 -48 -33 -30 0 -68 22 -75 42 -4 14 -11 17 -27 12
-12 -4 -116 -26 -232 -50 -115 -23 -194 -43 -173 -43 50 -1 809 -38 1226 -60
314 -16 344 -19 357 -37 8 -10 15 -22 15 -25 1 -21 -391 -13 -510 10 -25 5
-69 8 -97 6 -29 -1 -50 1 -47 6 3 5 -3 9 -13 9 -10 0 -29 3 -42 7 -17 4 -22 3
-17 -5 5 -9 -13 -12 -66 -11 -62 0 -69 2 -48 11 l25 11 -30 7 c-23 4 -32 2
-39 -12 -5 -10 -15 -18 -23 -18 -8 0 -12 3 -10 8 3 4 -24 5 -60 4 -38 -2 -70
1 -76 7 -6 6 -15 7 -21 2 -14 -11 -106 1 -109 14 -1 6 -30 9 -67 8 -233 -7
-244 -6 -355 21 -127 32 -284 40 -349 17 -44 -15 -142 -19 -201 -7 l-40 8 29
25 c16 13 34 22 41 19 29 -11 465 -18 492 -8 15 6 124 30 240 54 182 37 213
46 213 61 0 10 11 29 24 42 21 21 34 24 84 24 l60 -1 0 -47z m-200 -228 c-10
-2 -28 -2 -40 0 -13 2 -5 4 17 4 22 1 32 -1 23 -4z"/>
<path d="M2326 4104 c-10 -26 -7 -34 14 -34 16 0 40 26 40 44 0 14 -48 5 -54
-10z"/>
<path d="M2460 4110 c0 -5 11 -10 25 -10 14 0 25 5 25 10 0 6 -11 10 -25 10
-14 0 -25 -4 -25 -10z"/>
<path d="M2440 4080 c0 -5 9 -10 20 -10 11 0 20 5 20 10 0 6 -9 10 -20 10 -11
0 -20 -4 -20 -10z"/>
<path d="M2922 4085 c-11 -24 -10 -25 18 -25 19 0 33 7 40 19 15 28 13 31 -18
31 -21 0 -32 -7 -40 -25z"/>
<path d="M4210 2971 c0 -6 5 -11 11 -11 5 0 7 -4 4 -10 -3 -5 -1 -10 4 -10 16
0 13 16 -4 30 -10 9 -15 9 -15 1z"/>
<path d="M2483 2628 c-38 -18 -26 -28 32 -28 30 0 55 2 55 4 0 3 -7 12 -16 20
-18 18 -39 19 -71 4z"/>
<path d="M2460 2556 c0 -9 11 -21 25 -28 19 -9 29 -7 50 6 15 10 25 19 23 21
-2 2 -25 7 -51 10 -39 6 -47 4 -47 -9z"/>
<path d="M2468 2393 c7 -3 16 -2 19 1 4 3 -2 6 -13 5 -11 0 -14 -3 -6 -6z"/>
<path d="M2630 2390 c0 -6 11 -8 28 -4 39 10 40 14 4 14 -18 0 -32 -5 -32 -10z"/>
<path d="M2800 2380 c0 -6 7 -10 15 -10 8 0 15 2 15 4 0 2 -7 6 -15 10 -8 3
-15 1 -15 -4z"/>
<path d="M6836 4001 c-25 -27 -16 -44 11 -22 12 10 18 23 14 30 -5 8 -13 6
-25 -8z"/>
<path d="M6975 3980 c9 -16 18 -30 20 -30 3 0 5 14 5 30 0 23 -4 30 -20 30
-20 0 -20 -1 -5 -30z"/>
<path d="M6720 3900 c0 -6 7 -10 15 -10 8 0 15 2 15 4 0 2 -7 6 -15 10 -8 3
-15 1 -15 -4z"/>
<path d="M4390 3313 c0 -4 5 -39 10 -78 5 -38 10 -116 11 -172 2 -77 6 -103
16 -103 18 0 18 294 0 329 -12 24 -37 41 -37 24z"/>
<path d="M1100 2956 c0 -31 6 -34 13 -6 3 11 1 23 -4 26 -5 3 -9 -6 -9 -20z"/>
<path d="M1120 2585 c-36 -7 -108 -20 -160 -29 -52 -9 -140 -26 -195 -36 -120
-24 -189 -34 -505 -74 -19 -3 -86 -8 -148 -12 l-112 -7 0 -263 0 -263 53 5
c28 3 55 11 58 16 4 6 16 7 28 3 17 -5 19 -10 11 -20 -8 -10 -7 -14 2 -17 7
-3 -9 -4 -37 -2 -60 3 -115 -5 -115 -17 0 -5 9 -9 19 -9 11 0 22 -4 25 -9 3
-4 -6 -6 -19 -3 l-25 4 0 -366 0 -366 49 0 c28 0 53 5 57 12 5 8 2 9 -10 5
-10 -4 -15 -3 -11 3 8 14 21 13 37 -3 7 -8 20 -14 28 -14 8 -1 60 -4 115 -8
194 -12 523 -11 536 2 11 11 10 13 0 13 -7 0 -9 5 -6 10 8 13 35 13 55 0 12
-7 12 -12 2 -22 -23 -23 -12 -28 70 -28 80 0 81 0 63 20 -16 17 -16 20 -2 20
9 0 19 -5 22 -10 4 -6 22 -9 41 -8 32 2 34 4 18 15 -10 7 -14 13 -8 13 12 -1
121 -59 111 -60 -4 0 -21 7 -36 14 -28 15 -71 12 -71 -5 0 -5 -10 -9 -22 -9
-23 -1 -23 -1 2 -23 20 -17 24 -28 19 -47 -4 -14 -7 -38 -7 -55 0 -24 3 -19
15 22 l15 51 38 -13 c20 -7 81 -25 136 -40 54 -15 102 -30 106 -33 4 -4 10
-25 14 -48 l6 -41 -33 4 c-91 11 -249 35 -291 44 l-48 11 6 41 c3 23 7 51 9
62 4 20 -2 20 -228 22 -128 0 -359 4 -514 8 l-283 6 0 -170 0 -169 38 -13 c43
-14 241 -18 290 -6 32 9 33 8 23 -12 -8 -14 -21 -21 -42 -21 -22 0 -30 -4 -26
-14 8 -19 -59 -53 -121 -62 -33 -4 -52 -11 -52 -20 0 -21 -47 -62 -80 -69 -30
-7 -30 -7 -30 -76 0 -44 4 -69 11 -69 11 0 430 68 709 115 80 13 195 31 255
40 61 9 148 23 195 31 47 8 106 14 132 14 44 0 47 -2 53 -31 12 -52 46 -121
73 -146 22 -20 23 -23 6 -23 -47 0 -107 -61 -71 -73 29 -9 -62 -6 -105 5 -40
10 -57 8 -130 -12 -98 -28 -144 -46 -153 -60 -3 -5 15 -19 40 -31 33 -16 43
-24 33 -30 -20 -14 8 -27 72 -35 30 -3 114 -25 185 -49 72 -24 157 -48 190
-55 43 -8 473 -10 1530 -8 1263 3 1452 5 1340 16 -71 7 -140 15 -152 18 -30 8
-36 34 -28 111 l7 66 130 -5 c151 -6 154 -7 187 -106 24 -72 26 -88 9 -95 -7
-3 203 -6 467 -6 308 -1 476 2 469 9 -11 11 -196 71 -242 77 -18 3 -35 10 -39
16 -4 7 0 8 13 3 29 -11 304 -20 303 -10 0 9 -29 34 -204 179 -44 37 -105 88
-136 113 -30 26 -108 90 -172 141 -64 52 -115 96 -113 98 2 2 68 -3 147 -12
79 -8 241 -24 359 -35 118 -11 221 -23 228 -25 7 -3 11 -1 7 4 -3 5 -19 12
-35 16 -16 4 -32 11 -36 16 -3 6 6 7 23 4 21 -5 24 -4 13 4 -20 14 -1 14 38 0
18 -6 30 -15 27 -19 -11 -17 131 -41 320 -53 110 -8 207 -11 215 -8 9 3 -8 12
-40 22 -46 15 -50 18 -25 19 34 2 -45 24 -317 91 l-178 44 0 33 c0 26 -4 32
-22 33 -15 0 -18 2 -8 6 8 3 21 12 28 21 11 14 12 14 12 -1 0 -9 5 -17 11 -17
6 0 9 10 7 23 -2 12 -9 21 -16 20 -18 -4 -10 106 9 118 11 7 11 9 1 9 -9 0
-12 12 -9 40 2 22 6 43 10 47 12 11 8 23 -8 23 -8 0 -15 9 -15 20 0 11 3 20 8
20 4 0 7 12 7 28 2 79 25 214 25 146 0 -15 2 -16 9 -5 8 12 12 12 26 -2 9 -10
21 -17 27 -17 6 0 9 -3 6 -6 -4 -3 -15 -1 -26 5 -15 8 -21 8 -25 -2 -2 -7 16
-22 42 -34 46 -23 44 -31 -3 -13 -32 12 -34 -2 -3 -24 15 -12 16 -15 5 -12
-15 4 -16 2 -6 -20 10 -22 9 -27 -5 -35 -16 -9 -15 -12 3 -32 13 -13 16 -23
10 -25 -6 -2 -17 3 -23 11 -7 8 -23 18 -36 22 -21 6 -22 5 -10 -8 8 -8 20 -12
26 -10 19 7 16 -8 -4 -24 -14 -10 -14 -13 -3 -11 10 2 14 -4 12 -19 -2 -14 2
-23 10 -23 8 0 23 -7 34 -16 19 -15 19 -15 -3 -11 -13 3 -24 -1 -27 -9 -4 -10
3 -14 24 -14 17 0 30 5 30 10 0 6 9 19 19 29 14 14 27 17 52 12 18 -3 35 -13
37 -20 3 -10 0 -12 -12 -8 -9 4 -16 2 -16 -3 0 -6 14 -10 30 -10 20 0 30 5 28
13 -2 6 0 13 5 15 17 5 27 1 27 -12 0 -9 8 -12 25 -8 14 2 22 8 20 13 -3 4
-13 6 -23 3 -9 -3 -7 1 6 8 12 8 19 18 15 23 -4 4 -2 5 5 1 7 -4 10 -12 7 -17
-4 -5 -1 -9 5 -9 6 0 8 -4 5 -10 -4 -6 8 -10 29 -10 34 0 35 1 29 30 -5 27 -3
30 18 29 13 0 18 -3 12 -6 -18 -7 -16 -23 2 -23 8 0 15 5 15 10 0 6 6 10 13 9
35 -4 56 2 51 15 -4 11 0 13 17 9 16 -4 20 -3 15 6 -6 9 6 12 46 11 29 -1 62
1 73 4 11 2 22 5 25 6 16 3 -40 25 -65 25 -20 0 -30 5 -30 15 0 8 -3 20 -7 25
-3 6 5 10 20 11 15 1 41 7 59 14 26 12 41 12 80 2 43 -11 52 -10 91 8 30 15
42 26 38 36 -3 9 -1 12 4 9 6 -4 17 0 25 9 20 20 1 25 -49 14 -27 -6 -43 -5
-54 4 -13 11 -15 10 -10 -2 3 -9 1 -22 -6 -30 -13 -17 -41 -26 -31 -10 5 7 -3
8 -21 4 -16 -4 -34 -7 -41 -7 -7 0 -10 -5 -6 -10 3 -5 -3 -7 -13 -3 -11 3 -26
1 -34 -4 -9 -5 -19 -5 -27 2 -9 7 -13 7 -13 0 0 -5 -9 -8 -20 -5 -11 3 -20 9
-20 14 0 5 -7 9 -15 9 -8 0 -15 -5 -15 -10 0 -6 -7 -10 -16 -8 -10 2 -19 -3
-21 -9 -3 -8 4 -13 17 -13 29 0 51 -23 39 -41 -7 -11 -11 -10 -23 6 -14 17
-17 18 -26 5 -8 -12 -12 -13 -19 -2 -10 16 -95 27 -86 12 10 -17 -7 -11 -22 8
-8 9 -12 11 -8 5 7 -15 -4 -17 -24 -4 -10 6 -10 10 -1 16 13 8 1 18 -63 54
-41 23 -57 26 -57 11 0 -5 8 -7 18 -3 14 5 15 3 5 -7 -10 -11 -15 -11 -27 0
-9 7 -14 16 -11 20 7 11 -21 32 -37 28 -12 -3 -89 49 -96 65 -2 4 -12 7 -22 7
-32 0 -29 27 6 61 31 30 34 38 34 92 0 50 -2 58 -17 55 -21 -4 -30 -62 -14
-82 7 -9 7 -16 -1 -24 -16 -16 -48 -15 -48 1 0 6 -3 70 -7 140 -5 117 -4 129
13 142 33 24 43 2 37 -79 l-6 -73 32 -5 c36 -5 44 1 30 22 -7 13 -9 13 -11 0
-1 -8 -4 19 -7 60 l-6 75 -42 20 c-48 23 -63 49 -63 109 0 24 -9 71 -19 104
-11 33 -18 68 -15 79 2 10 1 23 -3 29 -11 16 -63 27 -63 14 0 -6 4 -9 9 -6 10
7 48 -20 40 -28 -8 -8 -72 14 -81 28 -13 19 -9 29 7 16 10 -8 15 -9 15 -2 0
17 -31 30 -70 30 -19 0 -96 4 -170 10 -233 19 -449 24 -422 10 18 -9 22 -17
17 -37 -4 -14 -12 -29 -18 -33 -8 -5 -7 -8 3 -9 8 0 3 -5 -12 -11 -16 -5 -28
-14 -28 -19 0 -5 -8 -9 -19 -9 -21 0 -45 -43 -56 -100 -12 -65 -16 -74 -26
-59 -5 8 -6 21 -4 30 3 8 6 48 7 87 2 50 6 72 15 72 7 0 13 5 13 10 0 6 -7 10
-15 10 -11 0 -12 5 -5 26 15 39 12 46 -17 42 l-28 -3 -12 -150 c-7 -82 -15
-155 -17 -162 -3 -6 -16 -19 -30 -28 -19 -13 -29 -14 -43 -6 -17 11 -17 11 2
10 25 -3 55 10 55 23 0 5 -5 6 -10 3 -6 -3 -22 2 -38 13 -15 11 -33 17 -40 15
-7 -3 -21 2 -31 11 -15 14 -20 14 -37 1 -27 -20 -54 -20 -28 1 10 8 14 13 7
10 -6 -4 -14 -2 -18 4 -3 5 -17 10 -31 10 -19 0 -24 -5 -24 -25 0 -20 6 -25
37 -31 31 -6 34 -8 18 -14 -11 -4 -23 -3 -26 3 -9 13 -40 1 -38 -15 6 -50 1
-55 -52 -48 l-51 7 4 -29 c5 -32 -7 -38 -17 -9 -3 11 -12 22 -20 25 -12 4 -15
-3 -16 -32 0 -30 -2 -33 -9 -17 -6 14 -8 -1 -8 -45 1 -36 3 -49 5 -30 3 19 9
39 14 45 5 5 9 17 9 27 0 10 4 18 10 18 5 0 7 -7 4 -15 -4 -8 -2 -21 4 -28 6
-6 12 -21 14 -32 1 -11 8 -23 13 -27 6 -4 2 -8 -7 -8 -10 0 -18 -4 -18 -10 0
-5 9 -10 20 -10 11 0 20 -3 20 -6 0 -10 -37 -54 -42 -49 -2 2 -2 -11 0 -30 3
-22 0 -35 -7 -35 -7 0 -9 5 -6 10 3 6 1 10 -4 10 -6 0 -11 9 -11 20 0 11 -5
20 -11 20 -6 0 -9 -7 -5 -15 3 -9 0 -15 -8 -15 -9 0 -11 -8 -8 -27 4 -20 7
-23 10 -10 4 21 22 23 22 2 0 -8 5 -15 10 -15 6 0 10 -8 11 -17 0 -15 2 -15 9
2 8 19 11 18 14 -5 0 -6 6 -14 11 -18 20 -14 13 -40 -12 -45 -26 -5 -55 25
-47 48 3 7 1 16 -5 20 -17 10 -25 -23 -13 -48 7 -12 16 -35 22 -52 l10 -30
-22 26 c-13 14 -31 29 -42 33 -14 5 -17 13 -12 39 10 58 16 313 6 292 -8 -18
-9 -17 -9 8 -1 16 3 26 9 22 6 -4 10 12 10 42 0 26 2 73 5 103 l4 55 -9 -48
c-11 -65 -20 -71 -21 -16 -1 54 -6 43 -18 -36 -7 -47 -10 -55 -16 -37 -7 20
-11 17 -46 -40 -61 -100 -64 -107 -51 -120 8 -8 16 -8 29 3 17 13 17 13 0 -13
-9 -15 -17 -38 -17 -51 0 -22 -5 -23 -112 -36 -62 -7 -148 -19 -192 -27 -43
-9 -80 -13 -82 -11 -8 7 96 90 114 91 57 6 120 19 140 29 19 9 25 8 32 -3 8
-12 10 -12 10 -2 0 8 -10 16 -21 19 -21 6 -21 7 -4 19 28 21 14 24 -51 14 -32
-6 -115 -10 -184 -10 -113 0 -123 1 -103 15 12 8 32 15 45 14 12 0 44 3 69 7
30 4 49 2 53 -5 9 -14 99 -14 150 0 31 8 41 8 47 -3 7 -10 9 -9 9 5 0 9 5 17
10 17 6 0 10 7 10 16 0 10 6 14 14 11 27 -10 106 95 106 141 0 17 6 32 15 36
8 3 15 13 15 23 0 15 -2 15 -15 -3 -13 -17 -14 -15 -16 36 -5 155 -3 210 6
215 6 2 -1 3 -15 2 -22 -2 -26 -9 -37 -57 -6 -30 -12 -74 -12 -96 -1 -39 0
-41 25 -36 21 4 25 1 22 -14 -2 -12 -13 -20 -29 -22 -25 -3 -27 -7 -38 -89 -6
-48 -15 -91 -21 -97 -12 -12 -12 -11 0 55 11 57 4 133 -11 123 -5 -3 -9 41 -9
105 0 112 -11 145 -31 94 -6 -15 -15 -37 -20 -48 -4 -11 -17 -51 -29 -90 -11
-38 -25 -72 -29 -75 -12 -7 -16 -70 -7 -99 6 -17 2 -31 -13 -52 -11 -15 -18
-34 -15 -42 6 -17 -60 -27 -185 -27 -73 0 -82 2 -67 13 14 10 17 23 14 55 -2
23 1 43 6 45 5 2 8 66 8 145 -1 111 2 145 13 156 35 35 3 91 -57 100 -44 7
-336 24 -533 31 -281 10 -839 46 -865 55 -21 8 -20 9 9 4 22 -4 31 -3 27 4 -3
6 2 13 11 15 11 3 6 5 -12 7 -27 1 -28 2 -10 11 15 7 11 7 -14 3 -23 -4 -31
-3 -27 5 4 7 -1 12 -13 13 -12 1 -33 3 -48 4 -242 25 -355 27 -474 10 -103
-14 -131 -22 -171 -47 -26 -17 -50 -40 -54 -52 -3 -12 -14 -31 -24 -42 -9 -11
-25 -53 -35 -94 -9 -41 -25 -87 -35 -103 l-17 -29 -17 25 c-9 14 -16 38 -16
53 0 37 -13 20 -36 -47 -23 -70 -35 -84 -28 -34 3 31 3 34 -5 17 -9 -20 -27
-140 -24 -154 1 -3 -9 -4 -22 -1 -14 2 -22 8 -19 13 3 5 9 7 13 4 5 -2 11 9
15 26 8 41 8 49 -1 47 -12 -3 -93 36 -93 44 0 4 23 -1 50 -11 l50 -19 1 36 c1
21 3 51 5 69 3 24 -1 33 -14 36 -16 4 -16 5 1 6 9 0 17 9 18 19 1 30 10 102
30 242 25 180 30 230 21 229 -4 0 -36 -7 -72 -14z m-23 -301 c-3 -3 -12 -4
-19 -1 -8 3 -5 6 6 6 11 1 17 -2 13 -5z m403 -40 c0 -9 -5 -14 -12 -12 -18 6
-21 28 -4 28 9 0 16 -7 16 -16z m93 7 c4 -1 7 -4 7 -8 0 -5 -18 -8 -40 -8 -37
0 -47 5 -35 16 3 4 31 4 68 0z m47 -5 c0 -11 -19 -15 -25 -6 -3 5 1 10 9 10 9
0 16 -2 16 -4z m50 -6 c0 -5 -4 -10 -9 -10 -6 0 -13 5 -16 10 -3 6 1 10 9 10
9 0 16 -4 16 -10z m40 0 c0 -5 -4 -10 -10 -10 -5 0 -10 5 -10 10 0 6 5 10 10
10 6 0 10 -4 10 -10z m58 -10 c4 -12 2 -13 -9 -3 -9 9 -16 10 -26 2 -7 -7 -13
-7 -13 -2 0 27 40 29 48 3z m-655 4 c-7 -3 -10 -11 -7 -17 3 -9 -8 -12 -34
-12 -29 0 -36 3 -28 11 15 14 36 22 61 22 11 0 15 -2 8 -4z m263 -41 c-6 -35
-26 -295 -26 -336 0 -10 -4 -15 -10 -12 -17 11 -13 89 15 300 1 11 3 35 4 53
0 17 6 32 12 32 7 0 9 -13 5 -37z m-293 -40 c-5 -12 -3 -14 7 -8 9 6 11 4 5
-4 -4 -8 -18 -11 -36 -7 -15 3 -31 1 -34 -4 -3 -5 -12 -7 -20 -4 -7 3 -23 1
-34 -5 -11 -6 -22 -7 -25 -2 -6 10 51 24 65 15 5 -3 9 -1 9 5 0 6 15 15 33 20
17 5 33 10 34 10 1 1 -1 -6 -4 -16z m2317 -2 c0 -6 -4 -13 -10 -16 -5 -3 -10
1 -10 9 0 9 5 16 10 16 6 0 10 -4 10 -9z m50 -10 c0 -6 -4 -13 -10 -16 -5 -3
-10 1 -10 9 0 9 5 16 10 16 6 0 10 -4 10 -9z m40 0 c0 -6 -4 -13 -10 -16 -5
-3 -10 1 -10 9 0 9 5 16 10 16 6 0 10 -4 10 -9z m-2596 -9 c2 -4 -4 -8 -15 -8
-10 0 -19 4 -19 8 0 4 6 8 14 8 8 0 17 -4 20 -8z m166 -27 c-7 -9 -15 -13 -19
-10 -3 3 1 10 9 15 21 14 24 12 10 -5z m-901 -10 c-6 -6 -57 -9 -84 -5 -11 2
3 6 30 9 50 6 63 5 54 -4z m867 -2 c-2 -12 -13 -19 -34 -21 -35 -4 -42 11 -14
27 27 16 51 13 48 -6z m4208 1 c94 -8 173 -19 174 -25 2 -5 8 -7 13 -3 5 3 9
-2 9 -10 0 -12 -6 -13 -32 -5 -21 6 -34 5 -36 0 -2 -6 -11 -2 -22 9 -15 15
-41 19 -161 24 -192 9 -229 6 -229 -16 0 -12 -8 -18 -25 -18 -14 0 -25 -4 -25
-10 0 -5 -11 -10 -25 -10 -26 0 -33 14 -14 26 6 3 8 17 5 30 l-6 24 101 0 c56
0 179 -7 273 -16z m-4505 2 c-2 -2 -17 -6 -34 -10 -22 -5 -26 -4 -15 4 14 9
59 15 49 6z m131 0 c0 -11 -19 -15 -25 -6 -3 5 1 10 9 10 9 0 16 -2 16 -4z
m-43 -12 c-3 -3 -12 -4 -19 -1 -8 3 -5 6 6 6 11 1 17 -2 13 -5z m4236 -11 c-7
-2 -19 -2 -25 0 -7 3 -2 5 12 5 14 0 19 -2 13 -5z m-4383 -13 c0 -5 -7 -10
-16 -10 -8 0 -12 5 -9 10 3 6 10 10 16 10 5 0 9 -4 9 -10z m-57 -7 c-7 -2 -19
-2 -25 0 -7 3 -2 5 12 5 14 0 19 -2 13 -5z m147 3 c0 -2 -7 -7 -16 -10 -8 -3
-12 -2 -9 4 6 10 25 14 25 6z m190 -6 c0 -5 -5 -10 -11 -10 -5 0 -7 5 -4 10 3
6 8 10 11 10 2 0 4 -4 4 -10z m-413 -26 c-3 -3 -12 -4 -19 -1 -8 3 -5 6 6 6
11 1 17 -2 13 -5z m363 -14 c0 -5 8 -10 18 -10 16 -1 16 -1 -1 -11 -13 -8 -22
-7 -33 1 -18 16 -18 30 1 30 8 0 15 -4 15 -10z m3130 0 c0 -5 -2 -10 -4 -10
-3 0 -8 5 -11 10 -3 6 -1 10 4 10 6 0 11 -4 11 -10z m-3175 -10 c3 -6 -1 -7
-9 -4 -18 7 -21 14 -7 14 6 0 13 -4 16 -10z m-425 -5 c0 -2 -9 -9 -20 -15 -12
-6 -20 -7 -20 -1 0 5 8 12 18 14 9 3 18 5 20 6 1 0 2 -1 2 -4z m350 -15 c-8
-5 -17 -7 -19 -4 -3 3 1 9 9 14 8 5 17 7 19 4 3 -3 -1 -9 -9 -14z m4033 -26
c4 -22 1 -24 -34 -24 -42 0 -51 16 -24 43 20 21 52 10 58 -19z m-4630 19 c-7
-2 -19 -2 -25 0 -7 3 -2 5 12 5 14 0 19 -2 13 -5z m62 -3 c3 -6 -1 -7 -9 -4
-18 7 -21 14 -7 14 6 0 13 -4 16 -10z m105 0 c-8 -5 -22 -9 -30 -9 -10 0 -8 3
5 9 27 12 43 12 25 0z m390 0 c0 -6 -11 -8 -27 -4 -40 10 -41 14 -5 14 18 0
32 -5 32 -10z m4223 3 c-7 -2 -21 -2 -30 0 -10 3 -4 5 12 5 17 0 24 -2 18 -5z
m-4003 -13 c-20 -13 -33 -13 -25 0 3 6 14 10 23 10 15 0 15 -2 2 -10z m4143
-6 c55 -6 67 -10 65 -23 -3 -11 -14 -16 -38 -15 -41 2 -67 8 -76 17 -4 4 -14
1 -21 -5 -12 -10 -14 -8 -11 7 2 13 -5 21 -22 27 -22 7 -21 7 5 3 17 -3 61 -8
98 -11z m-4803 -6 c0 -6 -3 -8 -7 -5 -3 4 -12 2 -19 -4 -7 -5 -38 -12 -71 -14
-60 -4 -53 4 22 23 57 14 75 14 75 0z m600 -3 c0 -9 -6 -12 -15 -9 -8 4 -15
10 -15 15 0 5 7 9 15 9 8 0 15 -7 15 -15z m-205 -5 c-3 -5 -12 -10 -18 -10 -7
0 -6 4 3 10 19 12 23 12 15 0z m325 -10 c0 -5 -7 -7 -15 -4 -8 4 -12 10 -9 15
6 11 24 2 24 -11z m4277 13 c-9 -2 -15 -9 -11 -14 3 -5 -8 -8 -24 -7 -17 1
-37 -4 -46 -11 -9 -8 -20 -11 -24 -7 -4 4 2 12 13 18 19 11 19 11 0 19 -12 5
5 7 45 7 36 0 57 -2 47 -5z m95 -9 c3 -3 4 -14 1 -24 -4 -16 -14 -19 -63 -18
-32 0 -64 5 -72 10 -8 5 -3 6 15 2 17 -4 27 -2 27 5 0 6 7 11 15 11 8 0 15 5
15 10 0 10 53 14 62 4z m-4517 -14 c3 -6 -1 -7 -9 -4 -18 7 -21 14 -7 14 6 0
13 -4 16 -10z m4689 -6 c14 -36 7 -46 -26 -39 -41 9 -38 7 -31 33 6 26 48 31
57 6z m-5074 -8 c0 -3 -4 -8 -10 -11 -5 -3 -10 -1 -10 4 0 6 5 11 10 11 6 0
10 -2 10 -4z m570 -11 c7 -9 8 -15 2 -15 -5 0 -12 7 -16 15 -3 8 -4 15 -2 15
2 0 9 -7 16 -15z m4010 0 c30 -3 145 -12 254 -21 110 -8 203 -17 207 -20 5 -3
5 -12 2 -21 -5 -13 -18 -15 -87 -9 -45 3 -209 15 -365 26 -278 19 -300 23
-301 54 0 8 146 3 290 -9z m-4873 -11 c-3 -3 -12 -4 -19 -1 -8 3 -5 6 6 6 11
1 17 -2 13 -5z m328 -14 c-3 -5 -14 -10 -23 -9 -14 0 -13 2 3 9 27 11 27 11
20 0z m215 0 c0 -5 -5 -10 -11 -10 -5 0 -7 5 -4 10 3 6 8 10 11 10 2 0 4 -4 4
-10z m35 0 c-3 -5 -12 -10 -18 -10 -7 0 -6 4 3 10 19 12 23 12 15 0z m-682
-17 c-7 -2 -19 -2 -25 0 -7 3 -2 5 12 5 14 0 19 -2 13 -5z m77 -3 c0 -5 -7
-10 -15 -10 -8 0 -15 5 -15 10 0 6 7 10 15 10 8 0 15 -4 15 -10z m986 -67 c8
-3 59 -11 112 -18 72 -9 84 -13 47 -13 -27 0 -74 3 -103 7 -36 5 -51 4 -49 -3
4 -13 65 -32 127 -41 l45 -6 0 -87 c0 -48 3 -107 7 -132 31 -209 63 -397 86
-513 15 -75 25 -137 21 -137 -7 0 -43 142 -54 215 -12 69 -25 115 -35 115 -6
0 -10 -10 -10 -22 0 -29 -6 -20 -13 20 -5 25 -3 32 9 32 14 0 15 8 9 48 -11
77 -25 121 -44 139 -10 10 -22 33 -26 51 -6 28 -4 32 15 32 17 0 20 3 12 13
-5 6 -13 27 -17 45 -3 17 -12 32 -18 32 -16 0 -36 45 -27 60 4 6 10 11 14 10
4 -1 12 1 19 4 6 3 -3 4 -22 3 -19 -1 -36 3 -38 10 -3 7 3 10 14 7 14 -4 19 0
19 15 0 12 -4 21 -8 21 -4 0 -8 -8 -8 -17 0 -15 -2 -16 -10 -3 -7 11 -10 11
-10 2 0 -7 -5 -10 -10 -7 -6 4 -8 11 -5 16 4 5 1 9 -5 9 -7 0 -23 9 -37 20
-14 11 -33 20 -42 20 -9 -1 -2 -7 15 -14 29 -13 102 -102 91 -112 -9 -9 -36 8
-42 27 -4 11 -11 16 -17 13 -6 -4 -5 -10 3 -16 23 -16 -73 1 -99 18 -12 8 -28
14 -35 13 -23 -4 -67 24 -67 43 0 21 -4 22 -30 8 -13 -7 -19 -6 -23 5 -4 10
-18 13 -47 10 -35 -3 -40 -1 -30 10 7 9 22 12 39 9 18 -4 32 0 40 10 11 13 11
16 -1 16 -8 0 -20 -6 -28 -12 -12 -11 -12 -10 -1 4 12 15 10 19 -10 26 -15 6
-19 11 -10 16 7 5 20 1 30 -8 20 -18 51 -21 51 -5 0 5 5 7 10 4 14 -9 12 -25
-3 -25 -7 0 -18 -9 -25 -20 -11 -18 -10 -20 17 -20 20 0 30 6 34 20 4 15 14
20 41 20 52 0 105 29 107 60 2 19 3 17 6 -8 3 -18 11 -36 19 -39z m-211 39
c-3 -3 -11 0 -18 7 -9 10 -8 11 6 5 10 -3 15 -9 12 -12z m402 2 c-3 -3 -12 -4
-19 -1 -8 3 -5 6 6 6 11 1 17 -2 13 -5z m-517 -40 c0 -2 -9 -4 -21 -4 -11 0
-18 4 -14 10 5 8 35 3 35 -6z m210 12 c0 -11 -19 -15 -25 -6 -3 5 1 10 9 10 9
0 16 -2 16 -4z m3843 -6 c-14 -13 -73 -22 -73 -12 0 11 21 18 58 19 13 0 20
-3 15 -7z m-4780 -7 c-7 -2 -21 -2 -30 0 -10 3 -4 5 12 5 17 0 24 -2 18 -5z
m647 -28 c-7 -9 -15 -13 -19 -10 -3 3 1 10 9 15 21 14 24 12 10 -5z m3630 11
c0 -3 -4 -8 -10 -11 -5 -3 -10 -1 -10 4 0 6 5 11 10 11 6 0 10 -2 10 -4z
m-4083 -22 c-3 -3 -12 -4 -19 -1 -8 3 -5 6 6 6 11 1 17 -2 13 -5z m4103 -4 c0
-5 -5 -10 -11 -10 -5 0 -7 5 -4 10 3 6 8 10 11 10 2 0 4 -4 4 -10z m44 1 c3
-5 -3 -11 -14 -14 -20 -5 -26 3 -13 16 9 10 21 9 27 -2z m-3664 -11 c0 -5 -17
-9 -37 -9 l-38 2 35 7 c19 4 36 8 38 9 1 0 2 -3 2 -9z m3590 -10 c0 -5 -2 -10
-4 -10 -3 0 -8 5 -11 10 -3 6 -1 10 4 10 6 0 11 -4 11 -10z m-276 -66 c-5 -44
-9 -53 -14 -38 -7 19 9 108 18 100 2 -3 0 -30 -4 -62z m420 59 c4 -5 13 -8 19
-8 24 0 16 -23 -10 -28 -15 -3 -36 -9 -45 -12 -11 -4 -18 -3 -18 4 0 6 12 11
28 12 15 0 21 3 15 6 -7 2 -13 11 -13 19 0 15 12 19 24 7z m-68 -20 c-3 -4
-26 -7 -51 -8 -24 0 -39 3 -32 7 15 10 93 11 83 1z m-4167 -37 c-2 -2 -20 -6
-39 -10 -25 -4 -31 -3 -20 4 14 9 69 15 59 6z m4116 -6 c-3 -5 -14 -10 -23
-10 -23 0 -2 -17 28 -23 22 -4 21 -4 -6 -6 -17 0 -37 6 -44 14 -10 12 -8 16
11 24 32 13 41 13 34 1z m-3435 -10 c0 -5 -12 -10 -27 -9 l-28 1 25 8 c14 4
26 8 28 9 1 1 2 -3 2 -9z m3550 -8 c3 -3 -7 -2 -22 0 -19 4 -28 1 -28 -8 0 -8
-4 -14 -10 -14 -12 0 -12 3 -4 24 4 11 14 14 33 10 14 -4 28 -9 31 -12z m30
-2 c0 -5 -4 -10 -10 -10 -5 0 -10 5 -10 10 0 6 5 10 10 10 6 0 10 -4 10 -10z
m-3523 -23 c-17 -5 -33 -4 -44 3 -16 10 -16 10 4 5 12 -3 24 -1 27 4 4 6 14 7
23 4 14 -5 12 -8 -10 -16z m3553 19 c0 -3 -4 -8 -10 -11 -5 -3 -10 -1 -10 4 0
6 5 11 10 11 6 0 10 -2 10 -4z m30 -6 c0 -5 -4 -10 -10 -10 -5 0 -10 5 -10 10
0 6 5 10 10 10 6 0 10 -4 10 -10z m-105 -9 c-3 -5 4 -12 15 -16 11 -3 20 -10
20 -15 0 -11 -30 -1 -47 16 -10 10 -10 13 0 17 18 8 19 8 12 -2z m-3308 -17
c43 -2 61 -18 69 -63 3 -20 24 -124 46 -231 22 -107 40 -210 42 -228 2 -31 0
-33 -23 -27 -37 9 -229 91 -257 110 -30 19 -31 40 -1 50 29 9 66 6 97 -10 14
-7 35 -16 47 -19 19 -6 22 -4 16 10 -5 15 -3 15 23 -2 27 -18 28 -18 15 -1
-20 25 -85 57 -115 57 -24 0 -25 3 -22 45 2 25 -1 48 -5 51 -5 3 -9 11 -9 17
0 7 5 4 11 -5 11 -19 54 -24 64 -8 4 6 10 8 15 5 5 -3 7 9 5 27 -7 51 -52 66
-79 26 -9 -12 -16 -18 -16 -12 0 39 53 61 98 41 24 -11 28 -22 11 -33 -12 -7
6 -24 26 -24 6 0 5 4 -1 8 -6 4 -11 18 -10 31 1 20 -7 26 -49 40 -71 23 -75
27 -75 77 0 48 18 87 34 76 6 -3 25 -7 43 -8z m2638 5 c-22 -4 -57 -11 -77
-14 -37 -6 -132 -77 -164 -123 -14 -20 -234 -549 -234 -562 0 -15 43 -16 95
-3 110 27 213 51 268 63 31 7 61 18 66 24 10 12 35 133 67 315 10 58 19 100
21 94 3 -7 -5 -61 -16 -122 l-20 -110 39 -67 c51 -88 56 -92 76 -68 13 16 15
16 10 2 -7 -24 11 -32 23 -11 8 14 10 3 8 -44 -1 -33 2 -59 6 -56 5 3 6 -10 3
-29 -13 -85 -15 -124 -7 -136 9 -14 21 60 21 133 0 22 4 47 10 55 7 11 11 8
20 -15 6 -15 7 -31 3 -34 -5 -3 -9 -19 -10 -36 -4 -90 -16 -175 -24 -175 -5 0
-9 -11 -9 -25 0 -26 15 -34 23 -12 3 6 6 -5 6 -26 1 -23 -3 -36 -9 -32 -5 3
-10 13 -10 21 0 8 -5 14 -10 14 -13 0 -52 -22 -63 -35 -6 -7 -10 -6 -13 2 -3
7 -18 10 -42 6 l-37 -6 40 32 c29 24 45 31 64 26 21 -5 23 -4 12 8 -9 11 -9
16 0 19 7 2 12 43 14 116 3 109 2 112 -19 108 -11 -2 -15 -1 -8 1 15 5 16 53
1 53 -5 0 -7 5 -4 10 4 6 11 8 16 5 5 -4 9 -1 9 4 0 6 -11 11 -24 11 -27 0
-59 36 -96 108 -12 24 -23 42 -26 40 -9 -10 39 -133 59 -150 11 -10 18 -21 14
-24 -3 -3 -16 6 -28 20 -27 31 -35 33 -35 6 0 -11 4 -20 9 -20 5 0 7 -7 3 -15
-3 -10 1 -15 12 -16 13 0 13 -2 3 -6 -8 -3 -19 0 -25 8 -16 20 -36 22 -36 4 0
-8 8 -15 17 -15 72 0 -102 -31 -331 -60 -87 -10 -160 -21 -161 -22 -2 -2 -15
-29 -29 -60 -21 -49 -29 -58 -50 -58 -15 0 -26 2 -26 5 0 3 11 31 24 63 13 31
63 163 110 292 48 129 91 244 96 255 15 38 49 160 55 203 8 53 24 62 100 56
33 -3 96 -1 140 4 101 12 132 12 80 1z m745 -15 c0 -14 -3 -14 -15 -4 -8 7
-15 14 -15 16 0 2 7 4 15 4 8 0 15 -7 15 -16z m79 -66 c0 -16 -3 -28 -9 -28
-6 0 -9 25 -9 58 1 47 3 52 9 27 4 -16 8 -42 9 -57z m-4559 62 c-20 -13 -33
-13 -25 0 3 6 14 10 23 10 15 0 15 -2 2 -10z m4427 -30 c9 0 14 -3 10 -6 -3
-4 4 -15 16 -25 l22 -18 -25 -1 c-15 0 -31 -5 -38 -12 -7 -7 -12 -8 -12 -4 0
5 8 15 18 23 15 13 15 14 1 10 -13 -4 -15 -1 -12 14 4 15 -1 20 -28 26 -27 5
-30 8 -14 13 12 4 25 1 33 -7 7 -7 21 -13 29 -13z m1078 -47 c-11 -43 -27 -12
-19 38 7 43 8 43 17 16 5 -15 6 -40 2 -54z m-891 52 c3 -9 0 -15 -9 -15 -9 0
-12 6 -9 15 4 8 7 15 9 15 2 0 5 -7 9 -15z m-407 -1 c-3 -3 -12 -4 -19 -1 -8
3 -5 6 6 6 11 1 17 -2 13 -5z m-3607 -8 c0 -3 -4 -8 -10 -11 -5 -3 -10 -1 -10
4 0 6 5 11 10 11 6 0 10 -2 10 -4z m599 -44 c1 -7 -3 -10 -9 -7 -5 3 -10 18
-9 33 0 24 1 25 9 7 5 -11 9 -26 9 -33z m-544 28 c-3 -5 -11 -10 -16 -10 -6 0
-7 5 -4 10 3 6 11 10 16 10 6 0 7 -4 4 -10z m65 -10 c0 14 13 13 34 -3 17 -12
15 -14 -20 -14 -22 0 -46 -2 -54 -5 -8 -3 -12 -3 -7 -1 4 3 7 11 7 19 0 12 4
12 20 4 14 -7 20 -7 20 0z m3785 0 c3 -5 1 -10 -4 -10 -6 0 -11 5 -11 10 0 6
2 10 4 10 3 0 8 -4 11 -10z m-3950 -10 c-3 -5 -14 -10 -23 -10 -15 0 -15 2 -2
10 20 13 33 13 25 0z m265 -4 c0 -3 -4 -8 -10 -11 -5 -3 -10 -1 -10 4 0 6 5
11 10 11 6 0 10 -2 10 -4z m1318 -3 c-10 -2 -26 -2 -35 0 -10 3 -2 5 17 5 19
0 27 -2 18 -5z m1882 -14 c0 -11 -5 -30 -11 -41 -6 -12 -19 -64 -29 -117 -10
-53 -18 -85 -19 -71 -1 33 27 229 34 241 11 16 25 10 25 -12z m-3643 5 c-3 -3
-12 -4 -19 -1 -8 3 -5 6 6 6 11 1 17 -2 13 -5z m1926 -1 c-13 -2 -33 -2 -45 0
-13 2 -3 4 22 4 25 0 35 -2 23 -4z m195 -10 c-21 -2 -55 -2 -75 0 -21 2 -4 4
37 4 41 0 58 -2 38 -4z m1797 -3 c3 -5 -3 -10 -15 -10 -12 0 -18 5 -15 10 3 6
10 10 15 10 5 0 12 -4 15 -10z m199 -5 c10 -26 -5 -157 -19 -171 -21 -21 -28
-17 -21 12 6 23 4 25 -21 22 -20 -2 -36 5 -56 26 -27 27 -31 49 -5 29 7 -6 29
-13 48 -16 31 -6 33 -5 17 7 -18 14 -18 14 0 19 16 4 16 6 -4 12 -11 4 -23 14
-26 24 -3 13 3 16 34 14 43 -2 61 12 27 20 -13 4 -26 1 -30 -6 -5 -7 -8 -8 -8
-1 0 27 54 35 64 9z m-1836 -2 c-21 -2 -55 -2 -75 0 -21 2 -4 4 37 4 41 0 58
-2 38 -4z m2177 -13 c57 -7 49 -8 -45 -4 -63 3 -120 9 -128 13 -15 8 60 4 173
-9z m-4452 3 c-7 -2 -19 -2 -25 0 -7 3 -2 5 12 5 14 0 19 -2 13 -5z m417 3 c0
-2 -7 -7 -16 -10 -8 -3 -12 -2 -9 4 6 10 25 14 25 6z m2047 -3 c-20 -2 -52 -2
-70 0 -17 2 0 4 38 4 39 0 53 -2 32 -4z m868 -11 c-2 -7 -1 -10 4 -7 14 8 23
-12 16 -36 -4 -12 -12 -18 -21 -15 -8 3 -14 4 -14 2 0 -3 -3 -11 -6 -20 -4
-11 -1 -16 10 -16 24 0 19 -16 -6 -25 -66 -23 -65 -22 -30 -35 31 -12 42 -33
22 -45 -6 -3 -17 1 -26 9 -22 23 -24 20 -11 -14 9 -23 9 -35 -1 -50 -9 -16 -9
-20 0 -20 9 0 9 -3 1 -11 -12 -12 2 -68 19 -80 6 -3 3 -9 -6 -12 -9 -4 -17 1
-21 14 -7 22 -33 24 -85 5 -26 -10 -34 -18 -32 -32 5 -26 2 -25 53 -10 25 8
57 12 72 9 23 -5 27 -10 27 -38 0 -32 -1 -33 -72 -50 -165 -39 -284 -65 -301
-65 -21 0 -18 16 13 85 9 22 28 67 40 100 13 33 31 78 40 100 10 22 37 87 61
145 23 58 43 106 43 106 1 1 29 5 64 9 46 5 62 4 62 -5 0 -8 -9 -11 -25 -8
-14 3 -25 1 -25 -3 0 -5 8 -10 18 -10 39 -3 92 -4 92 -2 0 1 3 9 7 19 5 13 3
16 -10 11 -9 -3 -17 -2 -17 3 0 5 11 9 25 8 17 -2 24 -7 20 -16z m-3440 -2 c3
-5 -1 -10 -9 -10 -9 0 -16 5 -16 10 0 6 4 10 9 10 6 0 13 -4 16 -10z m235 3
c0 -5 -14 -9 -30 -10 -18 -1 -28 2 -25 7 7 12 55 14 55 3z m160 -1 c0 -13 -23
-32 -39 -32 -14 1 -13 3 1 14 10 7 15 16 11 19 -3 4 1 7 10 7 10 0 17 -4 17
-8z m2333 1 c-13 -2 -35 -2 -50 0 -16 2 -5 4 22 4 28 0 40 -2 28 -4z m-2646
-9 c-3 -3 -12 -4 -19 -1 -8 3 -5 6 6 6 11 1 17 -2 13 -5z m53 2 c0 -3 -4 -8
-10 -11 -5 -3 -10 -1 -10 4 0 6 5 11 10 11 6 0 10 -2 10 -4z m350 -14 c0 -4
-14 -8 -30 -9 -17 -1 -30 1 -30 6 0 4 14 8 30 9 17 0 30 -2 30 -6z m4510 -12
c15 -5 -5 -6 -49 -4 -41 3 -77 7 -80 9 -7 8 102 4 129 -5z m-4393 -6 c-3 -3
-12 -4 -19 -1 -8 3 -5 6 6 6 11 1 17 -2 13 -5z m4573 -3 c0 -4 -24 -6 -52 -4
-78 7 -82 11 -10 12 34 1 62 -3 62 -8z m-303 -12 c-27 -14 -87 -20 -87 -8 0 6
-8 9 -20 6 -11 -3 -18 -2 -15 2 2 4 33 7 69 7 35 -1 59 -4 53 -7z m-4817 -3
c0 -3 -4 -8 -10 -11 -5 -3 -10 -1 -10 4 0 6 5 11 10 11 6 0 10 -2 10 -4z m140
0 c0 -2 -7 -6 -15 -10 -8 -3 -15 -1 -15 4 0 6 7 10 15 10 8 0 15 -2 15 -4z
m185 -6 c4 -6 -9 -10 -32 -9 -34 1 -35 2 -13 9 35 11 38 11 45 0z m98 3 c-7
-2 -19 -2 -25 0 -7 3 -2 5 12 5 14 0 19 -2 13 -5z m-378 -13 c3 -6 -1 -7 -9
-4 -9 3 -16 1 -16 -5 0 -18 26 -24 48 -12 21 11 52 5 52 -9 0 -4 -15 -9 -32
-10 -68 -3 -87 -5 -94 -12 -20 -20 -21 -4 -3 27 21 34 42 44 54 25z m534 -16
c-17 -21 -31 -17 -17 5 7 11 16 17 20 14 5 -2 4 -11 -3 -19z m-622 10 c-3 -3
-12 -4 -19 -1 -8 3 -5 6 6 6 11 1 17 -2 13 -5z m930 -16 c-3 -8 -6 -5 -6 6 -1
11 2 17 5 13 3 -3 4 -12 1 -19z m3146 3 c5 -5 -4 -7 -19 -5 -14 1 -32 8 -38
15 -8 9 -4 10 19 5 17 -4 34 -11 38 -15z m347 5 c0 -3 -4 -8 -10 -11 -5 -3
-10 -1 -10 4 0 6 5 11 10 11 6 0 10 -2 10 -4z m237 -2 c-3 -3 -12 -4 -19 -1
-8 3 -5 6 6 6 11 1 17 -2 13 -5z m110 0 c-3 -3 -12 -4 -19 -1 -8 3 -5 6 6 6
11 1 17 -2 13 -5z m-4487 -14 c0 -5 -7 -10 -16 -10 -8 0 -12 5 -9 10 3 6 10
10 16 10 5 0 9 -4 9 -10z m3700 -5 c7 -9 10 -18 7 -22 -8 -7 -37 15 -37 28 0
14 16 11 30 -6z m720 -4 c43 -7 33 -8 -47 -4 -55 3 -127 9 -160 13 -43 6 -31
7 47 4 58 -3 130 -8 160 -13z m-4713 -22 c2 -18 -2 -20 -24 -14 -14 3 -32 13
-40 20 -13 13 -10 15 24 15 32 0 39 -4 40 -21z m473 -8 c0 -4 -9 -16 -20 -26
-21 -19 -21 -19 7 -31 l28 -13 -30 6 c-16 4 -45 7 -62 7 -18 0 -33 2 -33 6 0
8 60 40 76 40 17 0 18 12 2 29 -11 11 -9 11 10 2 12 -6 22 -15 22 -20z m3573
7 c-13 -12 -26 -18 -30 -14 -4 4 1 14 11 22 31 22 43 17 19 -8z m209 -81 c-5
-56 -4 -91 2 -97 7 -7 4 -10 -7 -10 -16 0 -17 7 -12 63 4 34 8 67 10 74 2 7 0
15 -6 18 -5 4 -6 12 -2 18 4 7 8 15 9 20 4 19 6 21 10 11 3 -6 1 -50 -4 -97z
m708 83 c75 -8 71 -8 -35 -3 -65 3 -128 9 -140 13 -20 8 8 7 175 -10z m-880 0
c-13 -8 -13 -10 1 -10 24 0 32 -28 10 -35 -21 -6 -51 3 -51 16 0 4 8 5 17 2
12 -5 15 -2 10 9 -6 17 0 28 17 28 6 0 4 -5 -4 -10z m-3933 -6 c-3 -3 -12 -4
-19 -1 -8 3 -5 6 6 6 11 1 17 -2 13 -5z m810 -27 c1 -29 1 -30 -8 -9 -5 13 -7
28 -3 33 8 14 9 12 11 -24z m2703 8 c0 -8 -8 -11 -20 -8 -11 3 -20 11 -20 18
0 8 8 11 20 8 11 -3 20 -11 20 -18z m-2993 -17 c-3 -7 -5 -2 -5 12 0 14 2 19
5 13 2 -7 2 -19 0 -25z m2773 -17 c-6 -23 -13 -41 -16 -41 -5 0 6 70 13 83 12
20 13 -4 3 -42z m544 34 c-4 -8 -10 -15 -15 -15 -5 0 -9 7 -9 15 0 8 7 15 15
15 9 0 12 -6 9 -15z m1146 5 c0 -5 -14 -7 -32 -3 -46 8 -48 13 -5 13 21 0 37
-4 37 -10z m-5230 -10 c0 -5 -7 -10 -15 -10 -8 0 -15 5 -15 10 0 6 7 10 15 10
8 0 15 -4 15 -10z m624 -1 c-3 -5 -16 -9 -30 -9 -33 0 -24 15 10 16 14 1 23
-2 20 -7z m106 1 c0 -5 -6 -10 -14 -10 -8 0 -18 5 -21 10 -3 6 3 10 14 10 12
0 21 -4 21 -10z m-787 -30 c-9 -16 -23 -30 -31 -30 -9 0 -7 9 8 30 12 17 26
30 31 30 6 0 2 -13 -8 -30z m2449 11 c260 -14 321 -15 395 -4 48 7 89 11 91 9
8 -8 -108 -29 -188 -33 -74 -5 -749 32 -775 42 -24 9 195 3 477 -14z m1733 9
c3 -5 1 -10 -4 -10 -6 0 -11 5 -11 10 0 6 2 10 4 10 3 0 8 -4 11 -10z m145
-16 c0 -8 -7 -14 -15 -14 -8 0 -15 9 -15 20 0 13 5 18 15 14 8 -4 15 -12 15
-20z m690 -4 c124 -11 233 -20 243 -20 14 0 17 -9 17 -49 0 -62 -10 -111 -22
-111 -5 0 -7 8 -4 18 11 37 14 102 5 107 -5 4 -7 11 -4 16 4 5 1 9 -4 9 -6 0
-11 -4 -11 -10 0 -6 -27 -8 -67 -5 -38 2 -59 1 -49 -2 17 -4 15 -7 -13 -19
-18 -8 -38 -14 -45 -13 -6 0 -1 4 12 9 50 21 7 40 -90 40 -41 0 -51 -3 -55
-19 -6 -25 -33 -16 -33 10 0 16 -8 19 -47 19 -27 0 -66 3 -88 7 -37 6 -39 5
-26 -10 7 -10 20 -17 28 -17 8 0 11 -5 8 -11 -5 -7 -15 -5 -31 6 -13 8 -24 11
-24 5 0 -6 -8 -5 -20 2 -26 17 -26 28 2 20 12 -3 19 -1 15 4 -3 6 -23 11 -44
12 -21 2 -39 7 -41 12 -2 6 -8 10 -13 10 -6 0 -7 -4 -4 -10 8 -14 -8 -13 -22
1 -16 16 -25 -23 -21 -82 2 -33 7 -44 20 -44 9 0 20 -3 23 -7 8 -8 -38 -4 -51
4 -5 4 -7 39 -6 78 l4 73 116 -7 c65 -3 218 -15 342 -26z m-4659 11 c-7 -5
-11 -13 -7 -19 3 -6 2 -13 -4 -17 -5 -3 -10 1 -10 9 0 10 -6 13 -15 10 -8 -4
-15 -1 -15 4 0 9 19 16 55 20 6 1 4 -2 -4 -7z m3396 -28 c-3 -10 -5 -4 -5 12
0 17 2 24 5 18 2 -7 2 -21 0 -30z m-3557 17 c-19 -13 -30 -13 -30 0 0 6 10 10
23 10 18 0 19 -2 7 -10z m260 -1 c0 -6 8 -8 19 -4 13 4 23 0 29 -12 8 -13 13
-14 24 -6 10 9 16 6 25 -13 6 -13 7 -24 2 -24 -5 0 -9 -9 -9 -20 0 -24 -8 -25
-36 -5 -12 8 -24 11 -28 7 -4 -3 -4 2 0 11 5 15 2 17 -17 12 -14 -3 -35 -2
-49 3 l-24 9 28 7 c15 4 25 12 23 19 -2 7 -11 10 -18 8 -8 -2 -22 -6 -31 -8
-10 -3 -18 -1 -18 5 0 9 17 14 68 21 6 0 12 -4 12 -10z m3769 -8 c7 -5 12 -13
10 -18 -2 -6 -13 -2 -23 8 -20 19 -12 26 13 10z m-349 -16 c0 -8 -4 -15 -10
-15 -5 0 -10 7 -10 15 0 8 5 15 10 15 6 0 10 -7 10 -15z m-3216 -26 c-8 -14
-24 -10 -24 6 0 9 6 12 15 9 8 -4 12 -10 9 -15z m3664 9 c15 -15 16 -28 2 -28
-5 0 -10 7 -10 15 0 8 -5 15 -11 15 -5 0 -7 -5 -3 -12 5 -8 2 -9 -10 -5 -10 4
-23 7 -29 7 -18 0 15 20 34 20 8 0 20 -5 27 -12z m-4422 -13 c-20 -15 -36 -19
-36 -10 0 5 38 23 50 24 3 0 -4 -6 -14 -14z m224 5 c0 -5 -4 -10 -10 -10 -5 0
-10 5 -10 10 0 6 5 10 10 10 6 0 10 -4 10 -10z m4080 -6 c0 -8 -4 -12 -10 -9
-5 3 -10 10 -10 16 0 5 5 9 10 9 6 0 10 -7 10 -16z m-3825 -4 c-3 -5 0 -10 7
-10 10 0 10 -2 -1 -9 -7 -5 -21 -6 -31 -4 -10 3 -21 0 -24 -6 -4 -6 -22 -11
-39 -10 -33 1 -30 3 16 13 15 4 25 11 22 16 -5 7 6 12 48 19 5 0 5 -3 2 -9z
m4483 3 c-16 -2 -40 -2 -55 0 -16 2 -3 4 27 4 30 0 43 -2 28 -4z m130 -10
c-10 -2 -28 -2 -40 0 -13 2 -5 4 17 4 22 1 32 -1 23 -4z m-1413 -22 c-3 -6
-11 -11 -17 -11 -6 0 -6 6 2 15 14 17 26 13 15 -4z m662 13 c-3 -3 -12 -4 -19
-1 -8 3 -5 6 6 6 11 1 17 -2 13 -5z m118 -4 c3 -5 -3 -20 -15 -32 l-21 -23 5
30 c6 38 4 35 15 35 6 0 13 -4 16 -10z m-462 -22 c7 -27 -2 -45 -14 -27 -11
18 -11 49 0 49 5 0 11 -10 14 -22z m1667 6 c0 -2 -9 -4 -20 -4 -11 0 -20 4
-20 9 0 5 9 7 20 4 11 -3 20 -7 20 -9z m135 -2 c-3 -3 -11 0 -18 7 -9 10 -8
11 6 5 10 -3 15 -9 12 -12z m-1905 -12 c0 -5 -4 -10 -10 -10 -5 0 -10 5 -10
10 0 6 5 10 10 10 6 0 10 -4 10 -10z m1855 -12 c14 -6 25 -15 25 -20 0 -7 -31
8 -59 29 -10 7 10 2 34 -9z m-947 -15 c-5 -7 -7 -17 -3 -23 9 -14 -106 -2
-120 12 -7 7 8 9 48 4 33 -3 57 -2 57 3 0 5 -6 11 -12 14 -7 2 -1 4 14 3 19
-1 24 -4 16 -13z m99 1 c-3 -3 -12 -4 -19 -1 -8 3 -5 6 6 6 11 1 17 -2 13 -5z
m808 -4 c3 -5 1 -10 -4 -10 -6 0 -11 5 -11 10 0 6 2 10 4 10 3 0 8 -4 11 -10z
m-1898 -22 c-3 -8 -6 -5 -6 6 -1 11 2 17 5 13 3 -3 4 -12 1 -19z m870 -105
c10 -45 21 -79 25 -77 4 3 5 -2 2 -10 -3 -9 -2 -16 4 -16 6 0 8 -8 5 -18 -7
-29 24 -46 91 -48 109 -3 249 -14 339 -26 60 -8 94 -9 104 -2 21 13 66 132 60
156 -3 10 -1 16 3 13 8 -5 30 55 30 83 0 6 5 12 11 12 6 0 8 -9 5 -20 -3 -11
-9 -30 -12 -42 -3 -13 -21 -66 -41 -119 -30 -85 -38 -98 -61 -102 -33 -7 -407
20 -480 34 -44 9 -55 15 -63 37 -17 44 -57 256 -50 267 3 6 7 -1 9 -15 1 -14
10 -62 19 -107z m-807 101 c0 -8 -5 -12 -10 -9 -6 4 -8 11 -5 16 9 14 15 11
15 -7z m584 0 c3 -9 2 -23 -3 -31 -6 -12 -9 -8 -13 16 -5 32 5 42 16 15z
m1141 6 c3 -5 1 -10 -4 -10 -6 0 -11 5 -11 10 0 6 2 10 4 10 3 0 8 -4 11 -10z
m160 0 c3 -5 1 -10 -4 -10 -6 0 -11 5 -11 10 0 6 2 10 4 10 3 0 8 -4 11 -10z
m26 -13 c-10 -9 -11 -8 -5 6 3 10 9 15 12 12 3 -3 0 -11 -7 -18z m-3654 7 c-3
-3 -12 -4 -19 -1 -8 3 -5 6 6 6 11 1 17 -2 13 -5z m3853 -14 c24 -18 24 -19 3
-14 -12 4 -28 12 -34 20 -17 20 2 17 31 -6z m-1388 -7 c17 -5 40 -63 54 -139
l6 -35 -53 22 c-60 23 -65 26 -56 35 3 4 25 -1 47 -10 39 -16 41 -16 36 1 -3
10 -10 40 -17 66 -6 27 -15 44 -19 38 -8 -15 -55 -8 -54 7 3 31 5 34 22 27 9
-4 25 -10 34 -12z m1481 3 c4 -10 0 -14 -14 -13 -20 1 -24 9 -12 20 10 11 20
8 26 -7z m-4965 -21 c24 -10 41 -19 39 -22 -3 -2 -29 8 -58 22 -59 27 -50 28
19 0z m1345 18 c-7 -2 -21 -2 -30 0 -10 3 -4 5 12 5 17 0 24 -2 18 -5z m2840
-3 c20 0 37 -5 37 -11 0 -7 -19 -9 -57 -5 -32 3 -62 5 -66 6 -5 0 -5 5 -1 11
3 6 16 8 28 5 11 -3 38 -6 59 -6z m434 -12 c-3 -8 -6 -5 -6 6 -1 11 2 17 5 13
3 -3 4 -12 1 -19z m-1860 -10 c-3 -8 -6 -5 -6 6 -1 11 2 17 5 13 3 -3 4 -12 1
-19z m400 6 c-3 -3 -12 -4 -19 -1 -8 3 -5 6 6 6 11 1 17 -2 13 -5z m546 -1
c-7 -2 -21 -2 -30 0 -10 3 -4 5 12 5 17 0 24 -2 18 -5z m-3623 -33 c8 -5 11
-10 5 -10 -5 0 -17 5 -25 10 -8 5 -10 10 -5 10 6 0 17 -5 25 -10z m3037 4 c-3
-3 -12 -4 -19 -1 -8 3 -5 6 6 6 11 1 17 -2 13 -5z m363 -15 c0 -6 -4 -7 -10
-4 -5 3 -10 11 -10 16 0 6 5 7 10 4 6 -3 10 -11 10 -16z m1190 6 c0 -1 -9 -5
-19 -8 -13 -3 -18 -1 -14 9 4 10 33 10 33 -1z m-1784 -28 c12 4 15 1 12 -13
-2 -11 -13 -20 -26 -22 -20 -3 -22 1 -21 35 0 33 2 35 9 16 6 -16 14 -21 26
-16z m194 23 c0 -5 -5 -10 -11 -10 -5 0 -7 5 -4 10 3 6 8 10 11 10 2 0 4 -4 4
-10z m1260 -16 c0 -23 -3 -26 -30 -22 -26 4 -31 0 -45 -35 -13 -33 -14 -42 -3
-48 18 -12 36 -11 44 2 4 8 9 8 17 0 7 -7 7 -14 2 -20 -11 -10 -102 -31 -108
-24 -3 2 9 40 27 83 26 66 35 80 56 83 14 2 28 5 33 6 4 0 7 -11 7 -25z
m-1215 6 c3 -5 -3 -10 -15 -10 -12 0 -18 5 -15 10 3 6 10 10 15 10 5 0 12 -4
15 -10z m1382 -27 c-7 -6 -46 10 -41 18 3 5 14 3 24 -3 11 -7 18 -13 17 -15z
m-850 -9 c-5 -5 -57 13 -57 20 0 3 14 0 31 -6 16 -6 28 -12 26 -14z m1109 -1
c-7 -7 -26 7 -26 19 0 6 6 6 15 -2 9 -7 13 -15 11 -17z m-1504 3 l57 0 3 -123
3 -124 -110 7 c-60 3 -126 9 -145 13 l-35 7 4 78 c1 44 8 84 13 90 6 6 32 9
59 8 32 -3 49 0 49 7 0 7 -6 11 -12 10 -7 -1 -30 -1 -50 0 -31 1 -38 5 -38 21
0 19 4 20 73 13 39 -4 98 -7 129 -7z m471 -13 c-13 -2 -33 -2 -45 0 -13 2 -3
4 22 4 25 0 35 -2 23 -4z m95 -10 c-10 -2 -28 -2 -40 0 -13 2 -5 4 17 4 22 1
32 -1 23 -4z m357 -3 c-3 -5 -16 -10 -28 -9 -21 0 -21 1 -2 9 28 12 37 12 30
0z m-1311 -20 c7 24 8 24 16 5 15 -35 11 -55 -10 -55 -16 0 -20 -7 -20 -30 0
-20 5 -30 15 -30 10 0 15 -10 15 -31 0 -16 -4 -28 -9 -25 -5 3 -11 -4 -14 -16
-8 -27 1 -38 13 -18 8 12 10 11 10 -6 0 -26 -7 -33 -29 -27 -15 4 -18 18 -20
93 -1 49 1 106 5 127 7 35 8 36 14 13 l6 -25 8 25z m1089 13 c-13 -2 -35 -2
-50 0 -16 2 -5 4 22 4 28 0 40 -2 28 -4z m348 -11 c-7 -2 -18 1 -23 6 -8 8 -4
9 13 5 13 -4 18 -8 10 -11z m-4144 -14 c-3 -8 -6 -5 -6 6 -1 11 2 17 5 13 3
-3 4 -12 1 -19z m3896 15 c-7 -2 -21 -2 -30 0 -10 3 -4 5 12 5 17 0 24 -2 18
-5z m54 1 c-3 -3 -12 -4 -19 -1 -8 3 -5 6 6 6 11 1 17 -2 13 -5z m-4277 -53
c30 -6 120 -18 200 -26 80 -9 155 -18 167 -20 24 -6 29 -16 38 -91 l7 -52 -99
2 c-54 0 -150 -2 -213 -6 -113 -7 -114 -7 -60 7 34 9 112 16 202 17 90 2 148
7 148 13 0 6 -31 11 -68 12 -37 0 -88 7 -112 14 -54 16 -57 16 -93 18 -16 1
-26 5 -22 11 4 6 -9 10 -32 10 -26 0 -34 3 -24 9 10 7 0 11 -35 17 -64 9 -114
31 -114 49 0 12 -33 13 -212 10 -137 -3 -194 -1 -161 4 29 5 125 10 213 12
118 3 161 7 165 17 4 10 9 10 27 -2 13 -8 48 -19 78 -25z m337 -13 c-3 -8 -6
-5 -6 6 -1 11 2 17 5 13 3 -3 4 -12 1 -19z m2428 -50 c-4 -40 -12 -76 -18 -80
-7 -4 -122 -8 -256 -8 -228 0 -243 1 -236 18 4 9 12 29 17 45 12 32 6 30 213
57 88 12 176 25 195 30 19 4 48 8 63 9 l28 1 -6 -72z m900 52 c3 -6 -1 -7 -9
-4 -18 7 -21 14 -7 14 6 0 13 -4 16 -10z m184 -25 c2 -3 -1 -5 -8 -5 -14 0
-71 28 -71 35 0 5 70 -22 79 -30z m-319 -25 c0 -11 -4 -20 -10 -20 -5 0 -10 9
-10 20 0 11 5 20 10 20 6 0 10 -9 10 -20z m-3041 -15 c109 -37 153 -42 804
-85 577 -39 602 -40 700 -25 138 21 131 23 102 -35 -14 -28 -30 -48 -35 -45
-6 3 -67 8 -137 11 -71 3 -181 9 -246 14 -65 4 -128 6 -140 4 -21 -4 -21 -4
-2 5 15 7 7 10 -35 10 -31 1 -132 7 -225 15 -94 8 -208 17 -255 21 -47 3 -114
8 -150 11 -36 2 -143 11 -238 19 -95 8 -181 15 -191 15 -12 0 -21 10 -25 28
-4 15 -9 35 -12 45 -7 22 -3 22 85 -8z m3796 15 c-11 -5 -31 -8 -45 -8 -23 0
-22 1 5 8 42 11 65 11 40 0z m201 -5 c-1 -8 -5 -17 -9 -21 -9 -10 -77 5 -77
18 0 5 7 8 15 5 8 -4 17 -2 20 3 10 16 54 12 51 -5z m-4880 -30 c10 -14 25
-25 32 -25 8 0 34 -14 58 -32 24 -17 47 -28 51 -24 4 4 1 11 -7 16 -8 6 -10
10 -5 10 21 0 35 -17 29 -33 -4 -11 -1 -17 9 -17 9 0 26 -14 38 -31 l22 -31
-22 4 c-12 1 -21 7 -21 12 3 16 -21 24 -54 17 -45 -9 -86 -2 -86 15 0 8 -4 14
-9 14 -15 0 -22 32 -10 47 17 20 3 28 -26 15 -31 -14 -56 -6 -47 16 5 15 3 15
-10 4 -19 -15 -42 -7 -72 27 l-19 21 65 0 c58 0 67 -3 84 -25z m37 13 c42 -24
70 -48 56 -48 -14 0 -89 47 -89 55 0 8 9 6 33 -7z m247 -49 c0 -5 -4 -9 -10
-9 -5 0 -10 7 -10 16 0 8 5 12 10 9 6 -3 10 -10 10 -16z m2963 -41 c10 -37
-15 -51 -108 -63 -5 -1 -17 -4 -25 -7 -8 -4 -32 -12 -52 -18 -21 -6 -38 -15
-38 -20 0 -4 -17 -11 -37 -15 -21 -4 -41 -11 -44 -16 -3 -6 -16 -6 -32 0 -15
6 -86 15 -159 21 -73 5 -161 12 -195 15 -43 3 -63 1 -67 -8 -3 -6 -3 2 0 18 3
17 12 45 21 63 l15 32 322 1 c176 1 335 5 351 9 17 4 33 8 36 9 4 0 9 -9 12
-21z m430 15 c-13 -2 -33 -2 -45 0 -13 2 -3 4 22 4 25 0 35 -2 23 -4z m-3958
-13 c3 -5 25 -7 50 -3 51 7 131 -12 139 -33 3 -8 15 -14 26 -14 11 0 20 -4 20
-10 0 -5 -8 -10 -17 -10 -24 0 -5 -15 20 -16 12 0 32 -6 45 -12 29 -17 50 -5
25 14 -16 12 -11 13 44 11 60 -2 75 -8 53 -22 -6 -4 -7 -11 -4 -17 4 -7 -31
-8 -112 -4 -66 3 -134 5 -151 6 -22 0 -33 5 -33 14 0 8 -6 16 -12 19 -10 3
-10 7 0 19 18 22 5 27 -61 23 -57 -4 -73 4 -63 30 6 17 22 20 31 5z m3938 -6
c54 -9 45 -20 -13 -16 -27 2 -50 8 -50 13 0 11 11 11 63 3z m-233 -20 c0 -3
-9 -17 -20 -31 l-20 -26 0 32 c0 24 4 31 20 31 11 0 20 -3 20 -6z m231 -14
c21 0 39 -4 39 -10 0 -6 -27 -10 -60 -10 -56 0 -70 6 -53 24 4 3 13 4 21 1 7
-3 31 -5 53 -5z m-3200 -24 c-19 -7 -36 -17 -38 -22 -2 -7 61 -17 159 -28 261
-27 268 -28 268 -37 0 -5 -26 -6 -57 -3 -350 33 -424 39 -432 31 -12 -12 -64
0 -56 13 3 6 1 10 -4 10 -6 0 -11 3 -11 8 0 4 19 6 41 4 28 -3 39 -1 35 6 -11
17 25 31 79 31 l50 -1 -34 -12z m102 -3 c-7 -2 -19 -2 -25 0 -7 3 -2 5 12 5
14 0 19 -2 13 -5z m3137 -34 c0 -20 -4 -21 -46 -15 -26 3 -57 6 -70 6 -15 0
-24 6 -24 15 0 12 14 15 70 15 65 0 70 -2 70 -21z m-3635 -38 c-3 -6 -14 -9
-25 -8 -24 2 -15 17 11 17 11 0 18 -4 14 -9z m3295 -11 c0 -11 -2 -20 -4 -20
-2 0 -6 9 -9 20 -3 11 -1 20 4 20 5 0 9 -9 9 -20z m342 -3 c16 -25 0 -32 -73
-29 -79 4 -95 11 -85 38 6 15 16 16 78 10 40 -4 76 -12 80 -19z m-2527 -12
c191 -13 406 -30 935 -70 102 -8 211 -15 243 -15 35 0 57 -4 57 -11 0 -8 -21
-9 -67 -5 -38 3 -108 8 -158 11 -49 4 -227 17 -395 31 -290 23 -865 64 -902
64 -10 0 -18 5 -18 10 0 7 18 9 48 5 26 -3 142 -12 257 -20z m-1061 -3 c2 -4
-4 -9 -15 -9 -10 -1 -19 2 -19 8 0 11 27 12 34 1z m-61 -9 c-7 -2 -19 -2 -25
0 -7 3 -2 5 12 5 14 0 19 -2 13 -5z m1317 -30 c8 -3 -25 -14 -74 -24 -49 -10
-91 -17 -93 -15 -2 2 1 15 8 28 11 24 14 25 78 21 36 -3 73 -7 81 -10z m1926
-22 c-19 -35 -47 -49 -43 -21 3 19 33 49 50 50 4 0 1 -13 -7 -29z m398 9 c19
-7 26 -17 26 -35 0 -28 -11 -30 -132 -18 -61 5 -68 8 -68 28 0 12 3 25 7 28
10 11 138 8 167 -3z m-899 -50 c149 -5 297 -10 330 -11 l60 -1 -45 -9 c-28 -6
-144 -6 -305 1 -319 12 -416 20 -409 32 3 4 27 6 52 3 26 -3 169 -10 317 -15z
m415 -20 c0 -5 -4 -10 -10 -10 -5 0 -10 5 -10 10 0 6 5 10 10 10 6 0 10 -4 10
-10z m526 -54 c14 -20 30 -84 22 -91 -4 -5 -189 12 -225 20 -20 5 -23 12 -23
51 l0 46 106 -4 c90 -3 108 -6 120 -22z m951 -342 c-3 -3 -12 -4 -19 -1 -8 3
-5 6 6 6 11 1 17 -2 13 -5z"/>
<path d="M1015 2090 c-3 -5 -1 -10 4 -10 6 0 11 5 11 10 0 6 -2 10 -4 10 -3 0
-8 -4 -11 -10z"/>
<path d="M5365 1919 c-4 -6 -4 -13 -1 -16 8 -8 36 5 36 17 0 13 -27 13 -35 -1z"/>
<path d="M5540 1900 c0 -5 5 -10 10 -10 6 0 10 5 10 10 0 6 -4 10 -10 10 -5 0
-10 -4 -10 -10z"/>
<path d="M1301 1594 c0 -11 3 -14 6 -6 3 7 2 16 -1 19 -3 4 -6 -2 -5 -13z"/>
<path d="M1210 1515 c0 -16 -6 -25 -15 -25 -23 0 -18 -17 8 -24 34 -9 44 -7
44 8 0 8 -6 12 -14 9 -7 -3 -13 -1 -13 5 0 6 5 12 12 14 14 5 4 38 -12 38 -5
0 -10 -11 -10 -25z"/>
<path d="M1255 1341 c-3 -12 -11 -21 -16 -21 -5 0 -9 -7 -9 -15 0 -8 -4 -15
-10 -15 -5 0 -10 -5 -10 -11 0 -7 10 -5 25 5 14 9 30 14 35 11 6 -4 7 7 3 27
-8 42 -10 44 -18 19z"/>
<path d="M1160 1302 c0 -10 36 -9 46 1 4 4 -5 7 -19 7 -15 0 -27 -4 -27 -8z"/>
<path d="M3498 1343 c7 -3 16 -2 19 1 4 3 -2 6 -13 5 -11 0 -14 -3 -6 -6z"/>
<path d="M3355 870 c-3 -5 -1 -10 4 -10 6 0 11 5 11 10 0 6 -2 10 -4 10 -3 0
-8 -4 -11 -10z"/>
<path d="M3730 1400 c0 -5 5 -10 10 -10 6 0 10 5 10 10 0 6 -4 10 -10 10 -5 0
-10 -4 -10 -10z"/>
<path d="M3762 1383 c5 -25 28 -28 28 -4 0 12 -6 21 -16 21 -9 0 -14 -7 -12
-17z"/>
<path d="M3722 1359 c2 -7 10 -15 17 -17 8 -3 12 1 9 9 -2 7 -10 15 -17 17 -8
3 -12 -1 -9 -9z"/>
<path d="M3633 1345 c-3 -9 -3 -18 -1 -21 3 -3 8 4 11 16 6 23 -1 27 -10 5z"/>
<path d="M3661 1281 c-12 -16 -21 -37 -21 -48 1 -11 6 -7 15 14 10 25 22 33
49 39 43 8 48 24 7 24 -21 0 -36 -8 -50 -29z"/>
<path d="M3615 1280 c3 -5 8 -10 11 -10 2 0 4 5 4 10 0 6 -5 10 -11 10 -5 0
-7 -4 -4 -10z"/>
<path d="M3688 1258 c-36 -30 -19 -78 28 -78 43 0 56 38 24 70 -23 23 -31 24
-52 8z"/>
<path d="M3597 1234 c-3 -3 -3 -12 0 -20 3 -8 1 -14 -4 -14 -5 0 -14 -16 -20
-35 -14 -44 -8 -45 13 -2 22 42 19 40 43 27 15 -7 21 -7 21 0 0 6 -7 13 -15
16 -8 4 -15 12 -15 20 0 14 -12 19 -23 8z"/>
<path d="M3657 1158 c7 -8 10 -18 6 -22 -6 -6 58 4 66 10 2 2 -6 4 -18 4 -12
0 -32 5 -44 12 -19 10 -20 9 -10 -4z"/>
<path d="M3535 1035 l-30 -25 38 21 c20 11 37 23 37 25 0 10 -17 2 -45 -21z"/>
<path d="M4430 931 c0 -7 24 -11 62 -11 75 0 73 6 -5 15 -39 5 -57 3 -57 -4z"/>
<path d="M3790 845 c0 -8 2 -15 4 -15 2 0 6 7 10 15 3 8 1 15 -4 15 -6 0 -10
-7 -10 -15z"/>
<path d="M3707 823 c-4 -3 -7 -11 -7 -17 0 -6 5 -5 12 2 6 6 9 14 7 17 -3 3
-9 2 -12 -2z"/>
<path d="M3508 813 c-32 -5 -34 -10 -13 -39 8 -12 11 -24 8 -28 -3 -3 17 -6
45 -6 l52 0 0 40 c0 39 -1 40 -32 39 -18 -1 -45 -4 -60 -6z m22 -44 c0 -6 -4
-7 -10 -4 -5 3 -10 11 -10 16 0 6 5 7 10 4 6 -3 10 -11 10 -16z m50 1 c0 -5
-5 -10 -11 -10 -5 0 -7 5 -4 10 3 6 8 10 11 10 2 0 4 -4 4 -10z"/>
<path d="M3674 791 c4 -5 0 -12 -6 -14 -8 -3 -6 -6 5 -6 9 -1 17 6 17 14 0 8
-5 15 -11 15 -5 0 -8 -4 -5 -9z"/>
<path d="M3700 768 c0 -19 2 -20 10 -8 13 19 13 30 0 30 -5 0 -10 -10 -10 -22z"/>
<path d="M1385 2410 c3 -5 -2 -10 -12 -11 -11 0 -13 -3 -5 -6 6 -2 10 -8 8
-12 -3 -4 -7 -19 -10 -34 -4 -21 -1 -25 12 -20 10 4 12 8 4 11 -18 6 15 50 41
55 22 4 22 4 0 6 -13 0 -23 6 -23 11 0 6 -5 10 -11 10 -5 0 -7 -4 -4 -10z"/>
<path d="M1311 2344 c-7 -24 -6 -45 0 -62 6 -15 10 -29 11 -32 0 -14 8 -11 8
3 0 10 5 14 15 11 11 -5 15 1 15 22 0 26 -1 26 -14 9 -12 -17 -13 -17 -20 8
-3 15 -4 38 0 52 10 39 -4 29 -15 -11z"/>
<path d="M4132 2020 c0 -14 2 -19 5 -12 2 6 2 18 0 25 -3 6 -5 1 -5 -13z"/>
<path d="M4090 1955 c0 -8 2 -15 4 -15 2 0 6 7 10 15 3 8 1 15 -4 15 -6 0 -10
-7 -10 -15z"/>
<path d="M4220 1636 c0 -9 5 -16 10 -16 6 0 10 4 10 9 0 6 -4 13 -10 16 -5 3
-10 -1 -10 -9z"/>
<path d="M4211 1564 c0 -11 3 -14 6 -6 3 7 2 16 -1 19 -3 4 -6 -2 -5 -13z"/>
<path d="M5735 1520 c-3 -5 -1 -10 4 -10 6 0 11 5 11 10 0 6 -2 10 -4 10 -3 0
-8 -4 -11 -10z"/>
<path d="M6992 1434 c-1 -5 -24 -18 -51 -28 -38 -13 -49 -22 -44 -34 3 -12 2
-14 -4 -4 -5 7 -17 10 -26 6 -29 -11 -19 -24 18 -24 19 0 35 4 35 9 0 6 12 6
29 1 41 -11 53 0 48 46 -2 21 -4 34 -5 28z"/>
<path d="M6245 1408 c-27 -11 -53 -25 -57 -31 -4 -6 -22 -12 -40 -13 -41 -3
-125 -40 -106 -47 20 -7 -36 -27 -60 -20 -11 2 -33 -3 -48 -11 -26 -15 -27
-16 -4 -9 30 9 104 5 108 -5 1 -4 33 -6 71 -4 38 2 77 0 87 -5 13 -7 27 -6 42
2 21 12 22 14 7 29 -19 19 -65 21 -85 4 -12 -11 -12 -10 -2 3 6 9 10 18 7 21
-3 2 9 5 27 5 18 0 34 5 36 11 2 7 8 9 13 6 6 -3 15 -1 22 4 20 17 98 41 113
35 9 -3 14 2 14 13 0 16 2 16 10 4 10 -15 -6 -44 -20 -35 -4 3 -10 -2 -14 -10
-7 -19 3 -19 23 0 19 17 91 27 91 12 0 -5 9 2 21 17 17 21 24 24 35 15 11 -9
14 -8 15 2 0 8 4 5 9 -6 7 -18 8 -19 15 -2 4 9 17 17 29 17 19 1 19 2 3 11
-16 10 -122 8 -132 -2 -2 -3 -35 -2 -72 2 -92 11 -101 10 -158 -13z m245 -7
c0 -5 -10 -11 -22 -14 -22 -6 -22 -6 -4 8 23 17 26 18 26 6z m-232 -28 c2 -7
-1 -13 -8 -13 -6 0 -9 4 -5 9 3 5 -3 12 -12 15 -15 4 -15 5 1 3 11 -1 21 -8
24 -14z"/>
<path d="M6828 1398 c-24 -9 -38 -17 -31 -17 6 -1 24 4 40 10 15 6 36 12 47
15 27 5 32 13 7 11 -11 -1 -40 -9 -63 -19z"/>
<path d="M6540 1366 c0 -2 7 -7 16 -10 8 -3 12 -2 9 4 -6 10 -25 14 -25 6z"/>
<path d="M6805 1330 c-3 -5 1 -10 10 -10 9 0 13 5 10 10 -3 6 -8 10 -10 10 -2
0 -7 -4 -10 -10z"/>
<path d="M6954 1325 c24 -18 46 -19 46 -2 0 7 -14 13 -33 14 -30 2 -31 1 -13
-12z"/>
<path d="M5817 1299 c17 -18 26 -20 49 -11 l29 10 -28 11 c-16 6 -38 11 -50
11 l-21 0 21 -21z"/>
<path d="M6901 1304 c-19 -14 -25 -14 -32 -3 -6 10 -9 11 -9 2 0 -7 -3 -12 -7
-12 -24 4 -25 -4 -3 -17 l25 -15 -25 7 c-14 4 -33 7 -42 6 -10 0 -20 3 -23 9
-10 15 -53 10 -87 -11 -22 -13 -27 -20 -15 -20 9 0 17 -4 17 -9 0 -5 -15 -6
-33 -1 -25 5 -39 3 -55 -11 -12 -9 -22 -20 -22 -23 0 -12 23 -6 34 9 8 10 15
12 26 5 12 -8 13 -11 1 -19 -9 -6 -10 -10 -2 -12 8 -3 4 -13 -10 -28 -16 -17
-24 -20 -29 -11 -5 8 -18 10 -35 6 -22 -6 -25 -10 -15 -21 6 -8 19 -11 28 -9
9 3 5 -3 -10 -12 -16 -10 -28 -27 -28 -37 0 -13 -5 -17 -15 -14 -8 4 -17 2
-20 -3 -3 -4 1 -11 7 -13 8 -4 7 -6 -3 -6 -9 -1 -19 6 -23 14 -7 19 -30 19
-46 0 -13 -15 -35 -11 -25 6 12 19 -11 8 -34 -16 -15 -16 -18 -25 -10 -25 11
0 11 -2 -1 -10 -9 -6 -17 -5 -22 3 -5 8 -11 8 -15 2 -5 -5 -23 -11 -42 -12
-19 -1 -39 -7 -45 -13 -19 -19 -29 -10 -11 10 19 21 11 27 -14 11 -8 -5 -12
-18 -8 -31 3 -13 0 -23 -9 -27 -8 -3 -14 -11 -14 -19 0 -8 -9 -14 -20 -14 -11
0 -20 4 -20 9 0 4 -16 3 -35 -3 -45 -14 -44 -29 2 -57 23 -15 32 -24 23 -27
-8 -3 -16 0 -18 6 -2 6 -10 8 -18 5 -8 -3 -14 0 -14 7 0 7 -8 10 -20 7 -11 -3
-18 -1 -14 4 3 5 -7 9 -21 9 -22 0 -25 -3 -20 -20 5 -15 3 -18 -9 -14 -9 3
-16 2 -16 -4 0 -6 43 -13 98 -17 53 -3 117 -10 142 -15 25 -5 83 -12 130 -15
47 -3 113 -7 148 -10 35 -2 62 0 62 5 0 15 42 12 59 -5 18 -15 112 -34 98 -19
-5 5 -12 9 -15 10 -4 0 -20 6 -37 13 l-30 13 23 9 c13 5 26 18 29 29 3 11 10
17 15 14 5 -3 7 -12 5 -18 -5 -13 0 -15 53 -18 16 -1 27 -6 23 -11 -3 -5 3 -7
13 -5 11 2 19 10 19 18 0 9 11 16 28 18 15 2 27 -1 27 -7 0 -6 -6 -10 -12 -9
-16 4 -17 -24 -2 -29 7 -2 18 3 27 11 14 15 64 15 86 2 5 -4 10 53 10 140 2
130 0 148 -16 160 -17 13 -17 14 0 8 15 -6 17 3 17 85 0 71 -3 91 -14 91 -7 0
-19 7 -26 15 -16 19 -30 19 -59 -1z m29 -14 c8 -5 11 -10 5 -10 -5 0 -17 5
-25 10 -8 5 -10 10 -5 10 6 0 17 -5 25 -10z m-60 -58 c0 -5 -7 -9 -15 -9 -8 0
-15 4 -15 9 0 4 7 8 15 8 8 0 15 -4 15 -8z m-80 -17 c0 -8 -6 -15 -14 -15 -8
0 -17 -6 -20 -12 -5 -10 -7 -10 -12 0 -3 6 -12 12 -19 12 -8 0 -17 5 -21 11
-5 9 1 10 20 5 15 -4 26 -2 26 4 0 5 9 10 20 10 11 0 20 -7 20 -15z m180 5
c23 -14 6 -22 -24 -10 -15 5 -32 7 -38 4 -7 -4 -8 -2 -4 4 9 14 45 15 66 2z
m-129 -37 c-32 -13 -51 -10 -51 7 0 5 19 8 41 7 l42 -1 -32 -13z m64 7 c3 -5
1 -10 -4 -10 -6 0 -11 5 -11 10 0 6 2 10 4 10 3 0 8 -4 11 -10z m-205 -10 c0
-5 8 -10 17 -10 9 0 14 -3 10 -6 -8 -8 -47 5 -47 17 0 5 5 9 10 9 6 0 10 -4
10 -10z m285 -30 c8 -13 -5 -13 -25 0 -13 8 -13 10 2 10 9 0 20 -4 23 -10z
m-235 -42 c0 -6 -6 -5 -15 2 -8 7 -15 14 -15 16 0 2 7 1 15 -2 8 -4 15 -11 15
-16z m119 -27 c33 -32 38 -40 24 -45 -9 -4 -19 -3 -22 2 -3 5 -13 11 -21 14
-8 2 -15 13 -15 23 0 10 -6 20 -12 22 -7 3 -13 -3 -13 -12 0 -9 -4 -13 -10
-10 -5 3 -19 1 -30 -5 -11 -6 -20 -7 -20 -1 0 5 11 12 25 15 14 4 23 11 20 16
-4 6 -10 8 -15 5 -5 -3 -11 -2 -14 3 -2 4 10 9 29 10 26 2 41 -5 74 -37z
m-209 23 c0 -3 -7 -12 -15 -21 -20 -19 -32 -9 -15 12 12 15 30 20 30 9z m60
-4 c0 -5 -2 -10 -4 -10 -3 0 -8 5 -11 10 -3 6 -1 10 4 10 6 0 11 -4 11 -10z
m223 3 c-7 -2 -19 -2 -25 0 -7 3 -2 5 12 5 14 0 19 -2 13 -5z m-342 -30 c13
-17 13 -17 -6 -3 -11 8 -22 16 -24 17 -2 2 0 3 6 3 6 0 17 -8 24 -17z m349 7
c0 -5 -8 -10 -17 -10 -15 0 -16 2 -3 10 19 12 20 12 20 0z m-346 -39 c9 -10
16 -25 14 -32 -4 -20 -37 -30 -59 -19 -27 15 -24 21 5 10 15 -5 27 -5 34 2 14
14 4 38 -14 31 -19 -7 -47 5 -39 17 10 16 40 12 59 -9z m-117 3 c-3 -3 -12 -4
-19 -1 -8 3 -5 6 6 6 11 1 17 -2 13 -5z m-67 -14 c0 -5 -5 -10 -11 -10 -5 0
-7 5 -4 10 3 6 8 10 11 10 2 0 4 -4 4 -10z m355 0 c-3 -5 -11 -10 -16 -10 -6
0 -7 5 -4 10 3 6 11 10 16 10 6 0 7 -4 4 -10z m-265 -20 c0 -5 -4 -10 -10 -10
-5 0 -10 5 -10 10 0 6 5 10 10 10 6 0 10 -4 10 -10z m305 -8 c-3 -3 -11 0 -18
7 -9 10 -8 11 6 5 10 -3 15 -9 12 -12z m-149 -14 c4 -7 3 -8 -4 -4 -7 4 -12 1
-12 -8 0 -9 -4 -16 -10 -16 -11 0 -14 23 -3 33 10 10 21 8 29 -5z m45 -22 c-9
-11 -8 -15 5 -20 9 -4 15 -9 12 -12 -7 -6 -58 17 -58 27 0 7 19 15 44 18 5 0
3 -5 -3 -13z m139 10 c0 -2 -7 -6 -15 -10 -8 -3 -15 -1 -15 4 0 6 7 10 15 10
8 0 15 -2 15 -4z m-291 -29 c6 -8 8 -17 4 -21 -14 -14 15 -21 81 -21 36 1 66
-2 66 -7 0 -14 -36 -27 -51 -17 -22 13 -29 11 -39 -13 -9 -23 -9 -23 -10 2
l-1 25 -22 -27 c-23 -28 -47 -37 -47 -17 0 6 -9 8 -20 4 -12 -4 -20 -2 -20 5
0 7 -6 10 -13 7 -8 -3 -14 0 -14 7 0 7 14 10 37 8 27 -3 39 0 43 12 4 10 1 19
-8 22 -8 4 -12 10 -9 15 3 5 -7 9 -23 9 -22 0 -25 2 -13 10 21 14 46 12 59 -3z
m71 -13 c0 -2 -9 -4 -20 -4 -11 0 -20 4 -20 9 0 5 9 7 20 4 11 -3 20 -7 20 -9z
m-120 -30 c0 -8 -5 -12 -10 -9 -6 4 -8 11 -5 16 9 14 15 11 15 -7z m250 6 c0
-5 -5 -10 -11 -10 -5 0 -7 5 -4 10 3 6 8 10 11 10 2 0 4 -4 4 -10z m-480 -31
c0 -6 10 -10 23 -9 33 3 47 1 47 -7 0 -15 -55 -11 -74 5 -18 16 -19 16 -12 -2
5 -15 4 -17 -7 -8 -8 7 -17 9 -20 5 -4 -3 -7 -1 -7 5 0 11 16 20 38 21 6 1 12
-4 12 -10z m530 -31 c0 -12 -12 -9 -32 6 -26 19 -22 27 7 14 14 -6 25 -15 25
-20z m-620 2 c0 -5 -4 -10 -10 -10 -5 0 -10 5 -10 10 0 6 5 10 10 10 6 0 10
-4 10 -10z m300 -26 c0 -8 -6 -11 -15 -8 -8 4 -12 10 -9 16 3 5 -2 8 -11 6
-10 -2 -20 3 -22 9 -4 10 3 10 26 2 17 -6 31 -17 31 -25z"/>
<path d="M6418 1303 c7 -3 16 -2 19 1 4 3 -2 6 -13 5 -11 0 -14 -3 -6 -6z"/>
<path d="M5758 1288 c4 -4 20 -10 36 -14 22 -5 28 -4 24 7 -3 8 -18 14 -36 14
-17 0 -28 -3 -24 -7z"/>
<path d="M6390 1291 c0 -5 5 -13 10 -16 6 -3 10 -2 10 4 0 5 -4 13 -10 16 -5
3 -10 2 -10 -4z"/>
<path d="M6040 1230 c0 -5 -9 -10 -20 -10 -11 0 -20 -4 -20 -10 0 -5 9 -10 20
-10 11 0 20 4 20 8 0 5 10 14 23 20 l22 11 -22 0 c-13 1 -23 -3 -23 -9z"/>
<path d="M6380 1226 c0 -2 7 -6 15 -10 8 -3 15 -1 15 4 0 6 -7 10 -15 10 -8 0
-15 -2 -15 -4z"/>
<path d="M6310 1204 l-45 -13 45 4 c25 2 48 4 53 4 4 1 7 6 7 11 0 12 -3 12
-60 -6z"/>
<path d="M6610 1176 c0 -9 5 -16 10 -16 6 0 10 4 10 9 0 6 -4 13 -10 16 -5 3
-10 -1 -10 -9z"/>
<path d="M5996 1172 c-3 -6 -1 -14 5 -17 15 -10 25 3 12 16 -7 7 -13 7 -17 1z"/>
<path d="M6035 1160 c-8 -12 -8 -12 38 -15 41 -2 50 9 15 19 -33 8 -46 7 -53
-4z"/>
<path d="M5675 1129 c-4 -6 -14 -8 -22 -5 -8 3 -11 1 -8 -4 9 -15 32 -12 39 5
6 17 0 20 -9 4z"/>
<path d="M6467 1124 c3 -7 9 -14 14 -14 14 0 10 17 -5 23 -10 4 -13 1 -9 -9z"/>
<path d="M6287 1116 c-21 -16 -22 -26 -1 -26 8 0 13 4 9 9 -3 5 3 11 12 13 10
2 13 6 8 10 -6 3 -18 1 -28 -6z"/>
<path d="M6530 1120 c0 -6 7 -10 15 -10 8 0 15 2 15 4 0 2 -7 6 -15 10 -8 3
-15 1 -15 -4z"/>
<path d="M6335 1101 c-19 -8 -19 -8 4 -20 12 -7 30 -10 38 -7 13 5 14 4 3 -9
-7 -8 -21 -15 -31 -15 -11 0 -19 -4 -19 -10 0 -21 33 -9 68 26 37 36 37 36 10
30 -17 -4 -28 -2 -28 4 0 12 -16 12 -45 1z"/>
<path d="M6496 1094 c-11 -8 -16 -14 -10 -14 13 0 39 18 34 24 -3 2 -14 -2
-24 -10z"/>
<path d="M5640 990 c0 -5 5 -10 11 -10 5 0 7 5 4 10 -3 6 -8 10 -11 10 -2 0
-4 -4 -4 -10z"/>
<path d="M6146 982 c-3 -5 -17 -7 -31 -4 -15 2 -25 0 -25 -7 0 -7 8 -11 18 -9
9 1 22 0 27 -4 16 -10 35 5 26 21 -5 8 -11 9 -15 3z"/>
<path d="M1198 938 c-3 -24 -4 -44 -4 -45 1 -1 24 -5 53 -9 l51 -6 0 35 c0 29
-5 37 -26 46 -68 25 -69 25 -74 -21z m72 2 c0 -5 -5 -10 -11 -10 -5 0 -7 5 -4
10 3 6 8 10 11 10 2 0 4 -4 4 -10z m-35 -30 c3 -5 1 -10 -4 -10 -6 0 -11 5
-11 10 0 6 2 10 4 10 3 0 8 -4 11 -10z"/>
<path d="M1115 950 c-3 -5 -1 -10 4 -10 6 0 11 5 11 10 0 6 -2 10 -4 10 -3 0
-8 -4 -11 -10z"/>
<path d="M5776 945 c-3 -9 0 -15 9 -15 9 0 12 6 9 15 -4 8 -7 15 -9 15 -2 0
-5 -7 -9 -15z"/>
<path d="M5740 902 c0 -12 34 -42 47 -42 6 0 14 7 17 15 3 10 1 15 -7 13 -6
-1 -22 3 -34 10 -13 7 -23 9 -23 4z"/>
<path d="M5668 833 c6 -2 18 -2 25 0 6 3 1 5 -13 5 -14 0 -19 -2 -12 -5z"/>
<path d="M5850 809 c162 -25 170 -26 335 -49 457 -64 792 -110 803 -110 6 0
12 11 12 25 0 18 -5 25 -18 25 -11 0 -133 14 -273 30 -332 40 -914 100 -953
99 -17 -1 25 -10 94 -20z"/>
<path d="M5660 800 c0 -10 36 -50 44 -50 3 0 4 14 4 30 -1 25 -5 30 -25 30
-12 0 -23 -4 -23 -10z"/>
<path d="M5770 766 c0 -33 2 -36 30 -36 17 0 30 5 30 10 0 6 7 10 15 10 8 0
15 7 15 16 0 8 5 12 10 9 6 -3 10 -17 10 -30 0 -19 7 -26 37 -34 28 -8 39 -7
45 2 12 18 10 21 -19 41 -16 9 -20 15 -10 12 9 -3 17 -2 17 3 0 5 -33 11 -72
15 -40 4 -81 9 -90 12 -15 4 -18 -1 -18 -30z m40 4 c0 -5 -2 -10 -4 -10 -3 0
-8 5 -11 10 -3 6 -1 10 4 10 6 0 11 -4 11 -10z"/>
<path d="M6780 780 c0 -7 -7 -10 -15 -6 -8 3 -15 1 -15 -4 0 -13 33 -21 82
-20 24 0 67 -4 97 -10 38 -8 57 -8 64 -1 8 8 7 11 -3 13 -32 3 -35 4 -48 12
-8 5 -42 8 -75 8 -34 0 -68 5 -74 10 -9 7 -13 7 -13 -2z"/>
<path d="M6975 780 c3 -5 11 -10 16 -10 6 0 7 5 4 10 -3 6 -11 10 -16 10 -6 0
-7 -4 -4 -10z"/>
<path d="M5990 761 c31 -5 34 -9 35 -40 l0 -34 110 -23 c133 -28 137 -28 133
-8 -2 11 5 18 22 20 14 2 37 9 53 15 24 10 111 8 122 -3 2 -2 2 -14 -2 -27 -4
-17 -11 -21 -28 -17 -24 6 -65 -17 -48 -27 6 -4 136 -32 289 -62 154 -31 289
-59 302 -62 21 -5 22 -3 22 65 l0 70 -32 5 c-53 10 -587 84 -794 112 -175 23
-268 31 -184 16z m183 -28 c3 -5 -1 -14 -9 -21 -12 -11 -14 -9 -14 8 0 20 14
27 23 13z m-9 -52 c4 -5 -1 -8 -9 -7 -21 3 -31 16 -12 16 9 0 18 -4 21 -9z
m521 -29 c35 -7 37 -9 16 -14 -17 -5 -22 -11 -17 -24 5 -14 4 -15 -8 -4 -9 6
-14 17 -13 22 4 22 -21 18 -28 -4 l-8 -23 -4 22 c-3 15 -16 26 -36 33 -30 9
-29 9 13 5 25 -3 63 -8 85 -13z m269 -64 c24 -34 20 -45 -21 -51 -42 -7 -42
-7 -48 23 -9 48 41 68 69 28z"/>
<path d="M6918 573 c6 -2 18 -2 25 0 6 3 1 5 -13 5 -14 0 -19 -2 -12 -5z"/>
<path d="M6360 650 c0 -5 -10 -10 -22 -10 -19 0 -20 -2 -8 -10 23 -15 37 -12
43 10 3 11 1 20 -4 20 -5 0 -9 -4 -9 -10z"/>
<path d="M180 620 c0 -5 7 -10 16 -10 8 0 12 5 9 10 -3 6 -10 10 -16 10 -5 0
-9 -4 -9 -10z"/>
<path d="M108 343 c7 -3 16 -2 19 1 4 3 -2 6 -13 5 -11 0 -14 -3 -6 -6z"/>
<path d="M0 330 c0 -12 24 -12 60 0 21 7 19 8 -17 9 -24 1 -43 -3 -43 -9z"/>
<path d="M13 293 c9 -2 23 -2 30 0 6 3 -1 5 -18 5 -17 0 -22 -2 -12 -5z"/>
</g>
</svg>
